<?xml version="1.0" encoding="UTF-8" standalone="no"?>
<!-- Created with Inkscape (http://www.inkscape.org/) -->

<svg
   width="209.91998mm"
   height="39.723351mm"
   viewBox="0 0 209.91998 39.723351"
   version="1.1"
   id="svg35"
   xml:space="preserve"
   xmlns:inkscape="http://www.inkscape.org/namespaces/inkscape"
   xmlns:sodipodi="http://sodipodi.sourceforge.net/DTD/sodipodi-0.dtd"
   xmlns="http://www.w3.org/2000/svg"
   xmlns:svg="http://www.w3.org/2000/svg"><sodipodi:namedview
     id="namedview37"
     pagecolor="#505050"
     bordercolor="#eeeeee"
     borderopacity="1"
     inkscape:showpageshadow="0"
     inkscape:pageopacity="0"
     inkscape:pagecheckerboard="0"
     inkscape:deskcolor="#505050"
     inkscape:document-units="mm"
     showgrid="false" /><defs
     id="defs32"><clipPath
       clipPathUnits="userSpaceOnUse"
       id="clipPath17038"><rect
         style="fill:#008000;fill-opacity:1;stroke-width:0.132441"
         id="rect17040"
         width="210.23402"
         height="40.079277"
         x="2.7860497e-07"
         y="2.7555026e-07" /></clipPath></defs><g
     inkscape:label="Layer 1"
     inkscape:groupmode="layer"
     id="layer1"
     transform="translate(-0.31402395,-0.3559243)"><path
       style="fill:#ffffff;stroke-width:0.169333"
       d="m 130.0847,153.77274 c 0,-0.22506 -0.0953,-0.44765 -0.21166,-0.49463 -0.132,-0.0533 -0.10545,-0.0904 0.0706,-0.0988 0.15521,-0.007 0.32065,-0.10861 0.36762,-0.22502 0.051,-0.12644 0.0908,-0.0923 0.0988,0.0847 0.0193,0.42807 0.35203,0.36571 0.35203,-0.066 0,-0.19928 -0.12258,-0.45197 -0.27243,-0.56153 -0.30368,-0.22205 0.20981,-1.67992 0.64251,-1.82416 0.15964,-0.0532 0.16022,-0.0969 0.003,-0.19429 -0.11183,-0.0691 -0.20332,-0.045 -0.20332,0.0537 0,0.34901 -0.63749,0.18062 -0.73554,-0.19428 -0.12253,-0.46856 -0.0205,-0.57985 0.29304,-0.31963 0.18291,0.15179 0.27291,0.15329 0.36393,0.006 0.0883,-0.14285 0.16019,-0.13364 0.26648,0.0341 0.11717,0.18494 0.14608,0.17812 0.14816,-0.035 0.002,-0.1456 0.27119,-0.37012 0.59946,-0.49891 0.47156,-0.18503 0.54192,-0.26496 0.33511,-0.38068 -0.14397,-0.0806 -0.21549,-0.22137 -0.15894,-0.31286 0.0565,-0.0915 -0.0172,-0.34955 -0.16389,-0.57343 -0.16388,-0.25014 -0.20215,-0.44695 -0.0993,-0.51056 0.0921,-0.0569 0.16746,-0.0228 0.16746,0.0758 0,0.0986 0.1196,0.17933 0.26578,0.17933 0.17878,0 0.24804,-0.1247 0.21158,-0.381 -0.0343,-0.24125 -0.16286,-0.37238 -0.35045,-0.35748 -0.18422,0.0146 -0.29625,-0.0954 -0.29625,-0.29102 0,-0.20057 0.0862,-0.28146 0.23792,-0.22325 0.32596,0.12509 0.54398,-0.87255 0.26433,-1.20953 -0.14422,-0.17377 -0.14868,-0.24706 -0.0149,-0.24706 0.10453,0 0.19006,-0.14789 0.19006,-0.32867 0,-0.18076 0.0798,-0.37802 0.17743,-0.43834 0.0976,-0.0603 0.15476,-0.27435 0.127,-0.47565 -0.0362,-0.26301 0.0294,-0.35283 0.23314,-0.31918 0.15596,0.0258 0.32984,-0.0281 0.38642,-0.1196 0.0566,-0.0915 0.21407,-0.12375 0.35001,-0.0716 0.31401,0.1205 0.53013,-0.40523 0.27249,-0.66287 -0.14286,-0.14287 -0.19182,-0.11837 -0.19182,0.096 0,0.22021 -0.14922,0.28725 -0.635,0.28527 -0.47234,-0.002 -0.56994,-0.0446 -0.381,-0.16674 0.1397,-0.0903 0.35469,-0.16532 0.47776,-0.16674 0.69525,-0.008 0.87467,-0.75453 0.24191,-1.00637 -0.34292,-0.13646 -0.36524,-0.16667 -0.0847,-0.11462 0.29236,0.0542 0.381,-0.009 0.381,-0.27024 0,-0.23855 0.0789,-0.31064 0.26279,-0.24008 0.1717,0.0659 0.22078,0.0328 0.14156,-0.0953 -0.082,-0.13269 -0.026,-0.15961 0.17313,-0.0832 0.16833,0.0646 0.39825,0.009 0.53707,-0.12976 0.29376,-0.29376 0.0438,-0.50165 -0.42448,-0.35303 -0.38456,0.12206 -0.66186,-0.22741 -0.33885,-0.42704 0.1239,-0.0766 0.2894,-0.0996 0.36779,-0.0512 0.0784,0.0484 0.25346,-0.004 0.38907,-0.11658 0.19926,-0.16537 0.24659,-0.15 0.24659,0.0801 0,0.15719 0.0803,0.2351 0.17924,0.17394 0.10285,-0.0636 0.13319,-0.32052 0.0712,-0.6028 -0.0795,-0.36196 -0.0376,-0.51905 0.15845,-0.59429 0.14659,-0.0563 0.22115,-0.17568 0.16569,-0.26541 -0.0554,-0.0897 -0.20741,-0.12223 -0.3377,-0.0722 -0.13027,0.05 -0.23686,0.0171 -0.23686,-0.0731 0,-0.0902 0.26431,-0.16402 0.58735,-0.16402 0.4576,0 0.5654,-0.0572 0.48795,-0.25904 -0.0651,-0.16961 -0.22403,-0.22505 -0.46035,-0.16057 l -0.36095,0.0985 0.32869,-0.26277 c 0.1808,-0.14453 0.39578,-0.26277 0.47777,-0.26277 0.49849,0 0.97489,-1.19655 0.63804,-1.60245 -0.17103,-0.20607 -0.10254,-0.23216 0.44675,-0.17015 l 0.64875,0.0732 -0.635,-0.18313 c -0.74685,-0.21541 -0.87039,-0.56678 -0.14312,-0.40705 0.56296,0.12365 0.828,-0.13829 0.51795,-0.51188 -0.14412,-0.17366 -0.14843,-0.24658 -0.0146,-0.24658 0.33445,0 0.20342,-0.29461 -0.19094,-0.42926 -0.34625,-0.11823 -0.33081,-0.13647 0.16933,-0.19981 0.31,-0.0393 0.55034,-0.16805 0.55034,-0.29488 0,-0.12383 0.1252,-0.2732 0.27823,-0.33191 0.15303,-0.0587 0.2299,-0.15513 0.17081,-0.21421 -0.15554,-0.15553 0.22484,-0.56193 0.52595,-0.56193 0.53114,0 1.06051,-0.791 0.72972,-1.09037 -0.16063,-0.14536 -0.38129,-0.2643 -0.49037,-0.2643 -0.30196,0 -0.24145,-0.14555 0.24971,-0.60075 0.48186,-0.44656 0.67629,-0.5104 0.76551,-0.25134 0.0364,0.10565 0.14671,0.10565 0.31044,0 0.21502,-0.13875 0.21773,-0.18727 0.0177,-0.31615 -0.13,-0.0837 -0.19103,-0.27035 -0.13562,-0.41471 0.0727,-0.18944 0.0207,-0.23775 -0.18699,-0.17364 -0.25272,0.078 -0.25124,0.0654 0.0122,-0.1037 0.16494,-0.10588 0.24843,-0.27581 0.1855,-0.37761 -0.0688,-0.1114 -0.036,-0.13667 0.0824,-0.0635 0.27164,0.16789 0.72424,-0.32283 0.59891,-0.64938 -0.0669,-0.1744 -0.008,-0.26659 0.16983,-0.26659 0.35045,0 0.35419,0.57107 0.006,0.91924 -0.14635,0.14635 -0.18283,0.2661 -0.081,0.2661 0.20027,0 0.43348,-0.48425 0.59414,-1.23366 0.0652,-0.30413 0.26484,-0.53587 0.56205,-0.65244 l 0.46094,-0.18078 -0.381,-0.14644 c -0.41397,-0.15911 -0.51987,-0.49607 -0.156,-0.49607 0.12454,0 0.2191,-0.17021 0.21166,-0.381 -0.009,-0.26132 0.073,-0.36689 0.26174,-0.3361 0.15135,0.0247 0.40074,-0.14675 0.55423,-0.381 0.16147,-0.24643 0.20184,-0.4259 0.0958,-0.4259 -0.10077,0 -0.13709,-0.0746 -0.0807,-0.16586 0.0648,-0.10481 0.22147,-0.0916 0.42564,0.0359 0.42545,0.2657 0.65803,0.0231 0.25817,-0.26929 -0.21479,-0.15706 -0.24991,-0.26332 -0.11464,-0.34691 0.10724,-0.0663 0.19498,-0.45892 0.19498,-0.87252 0,-0.55556 0.0663,-0.75201 0.254,-0.75201 0.14881,0 0.254,0.15429 0.254,0.37254 0,0.43418 0.24312,0.24108 0.41572,-0.3302 0.098,-0.32445 0.0521,-0.381 -0.30965,-0.381 -0.23361,0 -0.47498,-0.0813 -0.53636,-0.1806 -0.18205,-0.29456 0.0353,-0.36945 0.44147,-0.15209 0.33206,0.17772 0.36498,0.16663 0.26658,-0.0898 -0.0844,-0.22002 -0.0454,-0.26689 0.1575,-0.18903 0.14838,0.0569 0.33086,0.10352 0.40552,0.10352 0.0746,0 0.17558,0.1524 0.22428,0.33866 0.054,0.20636 0.23099,0.33867 0.45308,0.33867 0.20048,0 0.31742,-0.0762 0.25986,-0.16933 -0.0575,-0.0931 -0.20557,-0.16934 -0.32891,-0.16934 -0.12334,0 -0.2702,-0.17145 -0.32636,-0.381 -0.1557,-0.581 -0.12659,-0.83659 0.0807,-0.70847 0.13032,0.0805 0.15203,-0.0454 0.0712,-0.41334 -0.12939,-0.58909 0.0113,-0.68207 0.3523,-0.23285 l 0.22494,0.29633 0.005,-0.30843 c 0.003,-0.16963 -0.11254,-0.42636 -0.25668,-0.57049 -0.36921,-0.36921 -0.14787,-0.50808 0.24422,-0.15323 0.215,0.19457 0.36071,0.23102 0.43606,0.10909 0.0623,-0.10072 0.17885,-0.14254 0.25912,-0.0929 0.0803,0.0496 0.19905,0.004 0.26399,-0.10084 0.0649,-0.10506 0.0228,-0.24989 -0.0936,-0.32184 -0.11642,-0.0719 -0.17992,-0.22604 -0.14112,-0.34242 0.051,-0.15303 0.15269,-0.12944 0.36737,0.0852 0.16325,0.16326 0.34815,0.24553 0.41087,0.18281 0.0627,-0.0627 0.002,-0.18333 -0.13508,-0.26804 -0.21546,-0.13321 -0.20994,-0.19317 0.041,-0.44419 0.27042,-0.27051 0.2975,-0.27092 0.3991,-0.006 0.13875,0.36157 0.41145,0.36948 0.41145,0.012 0,-0.17231 0.0932,-0.23636 0.254,-0.17464 0.14913,0.0572 0.254,0.002 0.254,-0.1331 0,-0.32193 -0.53383,-0.49375 -0.71523,-0.23021 -0.10504,0.1526 -0.13234,0.11646 -0.0916,-0.12126 0.0431,-0.25132 0.17646,-0.33045 0.51711,-0.30679 0.30116,0.0209 0.45903,-0.0519 0.45903,-0.21167 0,-0.13395 0.10497,-0.24354 0.23327,-0.24354 0.12829,0 0.32812,-0.1143 0.44406,-0.254 0.15862,-0.19113 0.16094,-0.254 0.009,-0.254 -0.12148,0 -0.1606,-0.12883 -0.0985,-0.32442 0.0566,-0.17843 0.0237,-0.37342 -0.0732,-0.43333 -0.0969,-0.0599 -0.17623,-0.22321 -0.17623,-0.36291 0,-0.1397 0.0774,-0.20613 0.17209,-0.14764 0.0947,0.0585 0.12826,0.1773 0.0747,0.264 -0.0536,0.0867 0.15472,0.15646 0.46291,0.15504 0.42407,-0.002 0.49855,-0.0425 0.30632,-0.16674 -0.20461,-0.13223 -0.17848,-0.16465 0.13442,-0.16674 0.21363,-10e-4 0.37605,-0.0978 0.36095,-0.21426 -0.052,-0.40055 0.0387,-0.89072 0.12514,-0.67628 0.14354,0.35606 0.39549,0.0524 0.39549,-0.47672 0,-0.42388 0.0658,-0.498 0.44186,-0.498 0.44418,0 0.50609,-0.37491 0.22023,-1.3335 -0.0382,-0.12806 0.0258,-0.26776 0.14224,-0.31045 0.13733,-0.0504 0.21299,0.0909 0.21543,0.40217 l 0.004,0.47978 0.33113,-0.42334 c 0.18212,-0.23283 0.33282,-0.35162 0.33491,-0.26397 0.002,0.0877 0.11564,0.0115 0.25237,-0.16933 0.3057,-0.40417 0.33552,-1.08885 0.0477,-1.09585 -0.11642,-0.003 -0.0692,-0.0879 0.10483,-0.18903 0.23533,-0.13672 0.3499,-0.12984 0.44674,0.0268 0.0716,0.1159 0.21495,0.15837 0.3185,0.0944 0.27889,-0.17236 0.22851,-0.39968 -0.10807,-0.48764 l -0.29633,-0.0774 0.29633,-0.0196 c 0.16298,-0.0108 0.29633,-0.10034 0.29633,-0.19897 0,-0.0986 0.0774,-0.13146 0.1721,-0.073 0.0947,0.0585 0.14075,0.15824 0.10244,0.22166 -0.0383,0.0634 0.0323,0.20948 0.15687,0.32458 0.18779,0.17349 0.2134,0.0359 0.14969,-0.80433 -0.0496,-0.65497 -0.0127,-1.01362 0.10436,-1.01362 0.0997,0 0.12958,0.0835 0.0665,0.18561 -0.0713,0.1154 0.005,0.16226 0.20168,0.12389 0.22035,-0.043 0.31836,-0.21134 0.3229,-0.55467 0.004,-0.27113 0.0988,-0.52373 0.21167,-0.56134 0.11667,-0.0389 0.20515,0.0831 0.20515,0.28274 v 0.35112 l 0.34356,-0.29416 0.34356,-0.29416 -0.5129,-0.2429 c -0.28209,-0.1336 -0.51289,-0.32052 -0.51289,-0.41538 0,-0.10002 0.0854,-0.0871 0.2032,0.0307 0.35172,0.35171 0.9261,0.2504 0.91091,-0.16067 -0.007,-0.20012 0.0926,-0.40056 0.22212,-0.44541 0.1768,-0.0612 0.20889,0.0247 0.12864,0.34449 -0.07,0.27894 -0.0198,0.49835 0.14544,0.63548 0.21084,0.17499 0.25236,0.14691 0.25236,-0.17069 0,-0.3187 0.041,-0.34607 0.254,-0.16934 0.20836,0.17293 0.254,0.16049 0.254,-0.0692 0,-0.15402 -0.1143,-0.32391 -0.254,-0.37751 -0.1397,-0.0536 -0.254,-0.17002 -0.254,-0.25868 0,-0.0887 0.0664,-0.1202 0.14747,-0.0701 0.0811,0.0501 0.325,-0.0628 0.54195,-0.25099 l 0.39448,-0.34212 -0.38794,-0.10145 -0.38795,-0.10145 0.481,-0.39349 c 0.26454,-0.21642 0.7116,-0.39623 0.99346,-0.39957 l 0.51248,-0.006 -0.0646,-0.67734 c -0.0707,-0.74143 0.0197,-0.82212 0.44488,-0.39696 0.33219,0.3322 0.56181,-0.18546 0.4248,-0.9577 l -0.0751,-0.42334 0.26285,0.32502 c 0.23829,0.29465 0.29076,0.30067 0.56187,0.0644 0.16445,-0.14332 0.37795,-0.23152 0.4744,-0.196 0.0965,0.0355 0.17538,-0.0887 0.17538,-0.2761 0,-0.3898 -0.11118,-0.42786 -0.40156,-0.13748 -0.14153,0.14153 -0.2032,0.14573 -0.2032,0.0139 0,-0.37523 0.21011,-0.72505 0.43549,-0.72505 0.29315,0 0.63541,0.6287 0.5142,0.94456 -0.0508,0.13243 -0.0231,0.24077 0.0616,0.24077 0.30228,0 0.33765,-0.31089 0.0895,-0.78671 -0.33728,-0.64666 -0.32852,-1.24529 0.0182,-1.24529 0.20596,0 0.24644,-0.1032 0.16611,-0.42333 -0.0584,-0.232835 -0.0339,-0.423335 0.0545,-0.423335 0.0884,0 0.1896,0.17145 0.22482,0.381005 l 0.064,0.381 0.23078,-0.469735 c 0.2643,-0.53799 0.92573,-0.77089 1.3813,-0.48638 0.43006,0.26858 0.56651,0.24267 0.3154,-0.0599 -0.17265,-0.20803 -0.16107,-0.254 0.0639,-0.254 0.2922,0 0.37294,-0.25798 0.1281,-0.4093 -0.23225,-0.14354 -0.01,-0.94537 0.26245,-0.94537 0.16861,0 0.21196,-0.10623 0.13818,-0.33866 -0.0654,-0.20592 -0.0304,-0.33867 0.0891,-0.33867 0.10814,0 0.23646,0.1524 0.28518,0.33867 0.0487,0.18626 0.19846,0.33866 0.33279,0.33866 0.13435,0 0.19795,-0.0749 0.14137,-0.16645 -0.1761,-0.28495 0.10496,-1.35755 0.35574,-1.35755 0.12934,0 0.23515,-0.12886 0.23515,-0.28636 0,-0.25614 0.0241,-0.25341 0.22832,0.0259 0.25587,0.34994 0.65616,0.2174 0.50816,-0.16826 -0.0645,-0.16808 0.0156,-0.24858 0.2473,-0.24858 0.18847,0 0.37748,0.0953 0.42003,0.21167 0.0425,0.11641 0.0679,0.002 0.0564,-0.25388 -0.0222,-0.49492 -0.10778,-0.56519 -0.36947,-0.30351 -0.0968,0.0968 -0.26059,0.10152 -0.40603,0.0116 -0.18897,-0.11679 -0.14109,-0.17641 0.21309,-0.2653 0.25126,-0.0631 0.45683,-0.1807 0.45683,-0.26141 0,-0.0807 0.20999,-0.10474 0.46665,-0.0534 0.59297,0.1186 1.50527,-0.58885 1.33421,-1.03462 -0.0607,-0.1582 -0.2077,-0.2503 -0.32666,-0.20465 -0.12487,0.0479 -0.21629,-0.0426 -0.21629,-0.2142 0,-0.24844 0.0818,-0.27375 0.49841,-0.15426 0.49314,0.14143 0.92795,-0.13803 0.95022,-0.61073 0.004,-0.0931 0.0745,-0.0643 0.15579,0.064 0.0813,0.12835 0.23376,0.18023 0.33883,0.1153 0.10507,-0.0649 0.15252,-0.18036 0.10546,-0.25651 -0.179,-0.28963 0.36261,-0.53311 0.58632,-0.26357 0.11689,0.14085 0.29105,0.25609 0.38704,0.25609 0.096,0 0.0105,-0.14229 -0.19007,-0.3162 -0.44286,-0.38409 -0.48226,-1.12641 -0.0682,-1.28529 0.35339,-0.13561 0.39417,-0.13137 0.33866,0.0352 -0.0233,0.0699 -0.0995,0.10795 -0.16933,0.0847 -0.0699,-0.0233 -0.127,0.11007 -0.127,0.29634 0,0.18626 0.11191,0.33866 0.24868,0.33866 0.15149,0 0.2106,-0.0993 0.15122,-0.254 -0.0536,-0.1397 -0.013,-0.254 0.09,-0.254 0.10311,0 0.18745,-0.1524 0.18745,-0.33866 0,-0.18815 0.1129,-0.33867 0.254,-0.33867 0.1397,0 0.254,-0.0762 0.254,-0.16933 0,-0.0931 -0.10956,-0.16934 -0.24348,-0.16934 -0.33892,0 -0.26042,-0.598418 0.10874,-0.828967 0.41021,-0.256178 0.41655,0.106307 0.008,0.443127 l -0.29633,0.24416 0.29633,-0.0932 c 0.23968,-0.0754 0.29634,0.01 0.29634,0.44579 0,0.50271 0.019,0.52001 0.28178,0.25719 0.23279,-0.23278 0.2439,-0.32744 0.0639,-0.54429 -0.18514,-0.22308 -0.16389,-0.2625 0.14155,-0.2625 0.4665,0 0.45749,-0.23106 -0.0216,-0.554832 l -0.381,-0.25748 0.508,-0.127915 c 0.2794,-0.07035 0.56399,-0.211431 0.63241,-0.313507 0.0795,-0.118545 0.12534,-0.09077 0.127,0.07687 0.002,0.144356 -0.0927,0.363431 -0.20907,0.486833 -0.16934,0.179493 -0.16934,0.239889 0,0.301977 0.11641,0.04269 0.21166,0.190054 0.21166,0.327494 0,0.13743 0.0764,0.20266 0.16979,0.14494 0.1133,-0.07 0.11263,-0.21174 -0.002,-0.425933 -0.19493,-0.364236 0.37724,-1.533498 0.58552,-1.196513 0.1892,0.306138 0.38938,0.207015 0.50397,-0.249552 0.0824,-0.328245 0.18576,-0.408486 0.42745,-0.331779 0.38373,0.121793 0.65493,-0.230458 0.33137,-0.430424 -0.18359,-0.113472 -0.17279,-0.162711 0.0549,-0.250073 0.15593,-0.05983 0.35471,-0.06477 0.44174,-0.01097 0.087,0.05379 0.24679,-0.0089 0.35501,-0.139253 0.13467,-0.162279 0.14072,-0.271676 0.0192,-0.346796 -0.0977,-0.06035 -0.17757,-0.02904 -0.17757,0.06959 0,0.09863 -0.0762,0.179327 -0.16933,0.179327 -0.0931,0 -0.16933,-0.162433 -0.16933,-0.360963 0,-0.322525 0.0711,-0.351422 0.6679,-0.271378 l 0.6679,0.08958 0.0518,-0.532955 c 0.0285,-0.293124 0.14702,-0.542479 0.26344,-0.554121 0.11641,-0.01165 0.36406,-0.03069 0.55033,-0.04233 0.18679,-0.01167 0.33867,-0.141111 0.33867,-0.288622 0,-0.196303 0.12388,-0.248332 0.46566,-0.195577 0.25612,0.03953 0.37516,0.04091 0.26455,0.0031 -0.14127,-0.04833 -0.11748,-0.166487 0.08,-0.39709 0.33648,-0.392975 0.54449,-0.421354 0.54449,-0.07428 0,0.1397 0.0844,0.254 0.18745,0.254 0.10309,0 0.14453,-0.11186 0.0921,-0.248576 -0.0525,-0.136718 -0.0225,-0.293616 0.0666,-0.348661 0.0891,-0.05505 0.16425,-0.305137 0.16708,-0.555757 0.004,-0.388474 0.0304,-0.412389 0.17616,-0.16217 0.14303,0.245469 0.22618,0.259325 0.50801,0.08467 0.27529,-0.170583 0.36543,-0.16318 0.49207,0.04042 0.25466,0.409349 0.39255,-0.189881 0.19875,-0.863604 -0.0903,-0.31404 -0.17113,-0.437633 -0.17953,-0.27465 -0.0156,0.301954 -0.52327,0.430957 -0.52327,0.132957 0,-0.519481 0.6662,-0.496919 1.08685,0.03681 0.39217,0.497601 0.43357,0.514616 0.43527,0.178898 0.002,-0.204054 -0.0743,-0.418101 -0.16746,-0.475661 -0.34903,-0.215716 -0.16361,-0.458609 0.26752,-0.350407 0.38249,0.096 0.42321,0.06668 0.32725,-0.235642 -0.11877,-0.374213 0.0724,-0.457055 0.36938,-0.160071 0.10187,0.101867 0.32666,0.148045 0.49954,0.102616 0.28126,-0.07391 0.27425,-0.09547 -0.0667,-0.204963 -0.47261,-0.151787 -0.48932,-0.364331 -0.0399,-0.50698 0.18763,-0.05955 0.29742,-0.178982 0.24401,-0.265412 -0.0534,-0.08643 0.0298,-0.157141 0.185,-0.157141 0.18539,0 0.24753,-0.0901 0.18125,-0.262795 -0.0614,-0.159931 -0.0308,-0.219507 0.0781,-0.152206 0.0984,0.06082 0.14092,0.209674 0.0945,0.330776 -0.0484,0.126167 0.0732,0.262479 0.28478,0.319227 0.5143,0.137932 0.65784,0.127249 0.55374,-0.04121 -0.0492,-0.07968 0.091,-0.110349 0.31177,-0.06815 0.34329,0.06562 0.39765,0.01312 0.37589,-0.363008 -0.014,-0.241849 -0.0826,-0.439781 -0.15245,-0.439845 -0.38049,-3.39e-4 -0.0422,-0.516856 0.45666,-0.69725 0.321,-0.116078 0.55636,-0.255201 0.523,-0.309161 -0.0333,-0.05396 0.0469,-0.245184 0.17836,-0.424942 0.22411,-0.306486 0.23898,-0.293195 0.23898,0.213535 0,0.2972 0.0762,0.540364 0.16933,0.540364 0.0931,0 0.16934,-0.147902 0.16934,-0.328672 0,-0.496823 0.32061,-0.591891 0.4987,-0.147872 l 0.15716,0.391878 0.0107,-0.367151 c 0.0166,-0.568829 0.1916,-0.902849 0.47291,-0.902849 0.19548,0 0.21168,0.05414 0.068,0.227247 -0.21109,0.254362 -0.0901,0.450086 0.27838,0.450086 0.17779,0 0.21438,-0.118567 0.13462,-0.436301 -0.10002,-0.398548 -0.0686,-0.431515 0.36265,-0.381 0.40562,0.04751 0.4797,-0.01031 0.52573,-0.410366 0.0651,-0.565319 -0.068,-0.588782 -0.48008,-0.08467 -0.24482,0.299484 -0.35616,0.337059 -0.52039,0.175625 -0.16493,-0.162124 -0.11464,-0.241217 0.23876,-0.375579 0.2931,-0.111435 0.41449,-0.256667 0.35157,-0.420611 -0.14871,-0.387546 0.71917,0.06677 0.94284,0.493565 0.1659,0.316524 0.17117,0.313757 0.0805,-0.04233 -0.0698,-0.274303 -0.0226,-0.381 0.16843,-0.381 0.14599,0 0.26542,-0.128864 0.26542,-0.286364 0,-0.249176 0.0314,-0.243678 0.24191,0.04233 0.22646,0.307724 0.24929,0.309651 0.35761,0.03021 0.0636,-0.16417 0.0273,-0.405037 -0.0808,-0.535259 -0.14952,-0.180176 -0.14792,-0.266792 0.007,-0.36238 0.11482,-0.07096 0.29229,-0.0038 0.40789,0.154257 0.28338,0.387537 0.47185,0.352021 0.25749,-0.04852 -0.11688,-0.21838 -0.11887,-0.363543 -0.006,-0.433327 0.0934,-0.05772 0.16979,0.01387 0.16979,0.159056 0,0.145197 0.0791,0.263994 0.17574,0.263994 0.0967,0 0.15382,0.17145 0.127,0.381 -0.0268,0.20955 0.0275,0.399199 0.1206,0.421441 0.0931,0.02224 0.16933,-0.09206 0.16933,-0.254 0,-0.176424 0.1527,-0.316129 0.381,-0.348551 0.57944,-0.08229 0.45464,-0.366947 -0.16933,-0.386232 l -0.55034,-0.01701 0.67734,-0.151598 c 0.37253,-0.08338 0.83967,-0.189191 1.03809,-0.235138 0.19843,-0.04595 0.39711,-0.222465 0.44151,-0.392259 0.068,-0.260182 0.23095,-0.301372 1.03623,-0.261992 0.53247,0.02604 0.9555,-0.02552 0.9555,-0.116468 0,-0.08976 0.1143,-0.163193 0.254,-0.163193 0.19604,0 0.17531,-0.07869 -0.0908,-0.344842 -0.18965,-0.189666 -0.29946,-0.418266 -0.24401,-0.508 0.17643,-0.285461 0.42279,-0.176608 0.58886,0.260175 0.1051,0.276469 0.29164,0.423334 0.53767,0.423334 0.29301,0 0.33157,-0.04516 0.17353,-0.2032 -0.28829,-0.288297 -0.2517,-0.482114 0.0679,-0.359478 0.1491,0.05721 0.33639,-0.0017 0.41618,-0.13072 0.12061,-0.195162 0.23628,-0.180881 0.68585,0.08469 l 0.54078,0.319442 -0.0959,-0.714617 c -0.079,-0.588887 -0.0513,-0.697505 0.15758,-0.617368 0.13938,0.05349 0.53294,0.106088 0.87457,0.116891 0.3702,0.0117 0.48433,0.05383 0.28249,0.104255 -0.31464,0.07861 -0.58398,0.337174 -0.59008,0.566442 -0.002,0.05372 0.22601,0.06412 0.50541,0.02311 0.2794,-0.04101 0.508,-0.171323 0.508,-0.28959 0,-0.118268 0.1524,-0.254884 0.33867,-0.303594 0.20262,-0.05299 0.33866,-0.230973 0.33866,-0.443083 0,-0.350197 0.17714,-0.459596 0.39365,-0.2431 0.0613,0.06128 0.0265,0.213682 -0.0772,0.338667 -0.13354,0.160903 -0.13486,0.227247 -0.004,0.227247 0.10126,0 0.2668,-0.154534 0.36789,-0.34341 0.22494,-0.420324 0.50724,-0.292617 0.38515,0.174246 -0.0514,0.196687 -0.005,0.338497 0.11056,0.338497 0.10949,0 0.15197,-0.0762 0.0944,-0.169333 -0.0593,-0.09604 0.0829,-0.169334 0.32867,-0.169334 0.23832,0 0.4243,-0.05715 0.41328,-0.127 -0.0511,-0.323662 0.0465,-0.378748 0.36713,-0.207159 0.39842,0.213225 1.34625,-0.110066 1.34625,-0.459183 0,-0.111468 0.0753,-0.249226 0.16739,-0.306126 0.0921,-0.0569 0.12947,-0.0043 0.0831,0.117006 -0.0592,0.154846 0.12246,0.234625 0.61038,0.268047 l 0.69469,0.04758 -0.12184,-0.721067 c -0.11039,-0.653383 -0.096,-0.699615 0.15357,-0.492517 0.15147,0.125702 0.27539,0.371619 0.27539,0.546481 0,0.174864 0.11191,0.317934 0.24868,0.317934 0.15106,0 0.21057,0.09933 0.15159,0.253028 -0.0534,0.139165 -0.16531,0.210867 -0.24869,0.159339 -0.0834,-0.05153 -0.15158,-0.01749 -0.15158,0.07565 0,0.263915 0.24561,0.351513 0.51607,0.184062 0.13527,-0.08374 0.24593,-0.402556 0.24593,-0.708494 0,-0.305936 0.0762,-0.556248 0.16933,-0.556248 0.0931,0 0.14585,0.181302 0.11716,0.402893 -0.0425,0.328387 0.004,0.380866 0.254,0.283788 0.5408,-0.210382 0.64597,-0.185287 0.58979,0.140729 -0.043,0.24964 0.0217,0.299337 0.29633,0.22752 0.23262,-0.06083 0.35139,-0.0114 0.35139,0.146256 0,0.130981 0.1143,0.238147 0.254,0.238147 0.27916,0 0.34325,-0.263518 0.10056,-0.413507 -0.19089,-0.117974 0.14585,-1.279826 0.37093,-1.279826 0.0884,0 0.12476,0.137306 0.0809,0.305123 -0.0613,0.23439 0.0738,0.353059 0.58276,0.511907 0.831,0.259356 1.10524,0.115489 0.69621,-0.365255 -0.21224,-0.249481 -0.22394,-0.297131 -0.0378,-0.153992 0.14827,0.114003 0.31972,0.157139 0.381,0.09586 0.0613,-0.06128 0.11143,0.05368 0.11143,0.255468 0,0.201789 0.0843,0.366889 0.18745,0.366889 0.10309,0 0.14491,0.110853 0.0929,0.24634 -0.0794,0.206949 0.10724,0.231214 1.16722,0.151756 l 1.26175,-0.09458 v 0.359471 c 0,0.372832 -0.47742,0.369094 -1.21739,-0.0095 -0.17208,-0.08805 -0.32788,-0.07871 -0.39099,0.02343 -0.0577,0.09338 0.0426,0.169791 0.22298,0.169791 0.18037,0 0.41807,0.10861 0.52823,0.241356 0.19843,0.239085 0.78834,0.264495 1.13704,0.04898 0.24911,-0.15395 0.39479,0.02761 0.27424,0.341758 -0.086,0.223962 0.0373,0.24318 0.88228,0.137604 0.85787,-0.107186 0.96909,-0.08865 0.87887,0.146461 -0.0769,0.200295 0.002,0.269176 0.30631,0.269176 0.22528,0 0.48387,0.132715 0.57465,0.294923 0.0908,0.162208 0.22502,0.234941 0.29833,0.161632 0.0733,-0.07331 0.0384,-0.285325 -0.0777,-0.471145 -0.11605,-0.185818 -0.16481,-0.41259 -0.10836,-0.503937 0.12654,-0.20475 0.74285,0.523809 0.64931,0.767571 -0.037,0.09649 0.12412,0.3192 0.35809,0.494914 0.49112,0.368813 0.53447,0.646816 0.15934,1.021947 -0.24191,0.241904 -0.24047,0.266095 0.0159,0.266095 0.15508,0 0.3218,-0.1524 0.37052,-0.338667 0.17126,-0.654955 0.49498,-0.292611 0.40355,0.451728 -0.0183,0.149411 0.0754,0.150679 0.38371,0.0052 0.2244,-0.105896 0.37054,-0.290124 0.32478,-0.409394 -0.0458,-0.11927 0.002,-0.216855 0.10423,-0.216855 0.10311,0 0.18745,0.08099 0.18745,0.179977 0,0.09899 0.13335,0.166413 0.29633,0.149833 0.671,-0.06826 1.41104,0.01849 1.32637,0.15548 -0.0498,0.08064 -0.28293,0.109861 -0.51799,0.06493 -0.23506,-0.04493 -0.42484,-0.01566 -0.42174,0.06504 0.0105,0.275946 0.64091,0.908741 0.90519,0.908741 0.16498,0 0.22735,0.09519 0.1664,0.254 -0.0617,0.16084 0.002,0.254 0.17465,0.254 0.30237,0 0.3657,0.260847 0.10279,0.423334 -0.44758,0.276619 -0.0302,0.549219 1.05039,0.685971 0.293,0.03708 0.61468,0.155109 0.71484,0.26228 0.1353,0.144785 0.0624,0.173684 -0.28356,0.112453 -0.32839,-0.05812 -0.46567,-0.0114 -0.46567,0.158486 0,0.189544 0.16242,0.216536 0.762,0.126625 0.51117,-0.07665 0.762,-0.05286 0.762,0.07229 0,0.102608 -0.3048,0.235299 -0.67733,0.294869 -0.37254,0.05957 -0.67734,0.167636 -0.67734,0.240148 0,0.07251 0.1524,0.09199 0.33867,0.04328 0.21609,-0.05651 0.3396,-0.0048 0.34126,0.142853 0.002,0.181851 0.0411,0.177015 0.18222,-0.02258 0.11623,-0.164331 0.20706,-0.187965 0.25732,-0.06694 0.0427,0.102881 0.24648,0.158227 0.45278,0.122992 0.65428,-0.111749 0.90292,0.177641 0.63249,0.73616 -0.12722,0.262785 -0.21351,0.578695 -0.19172,0.702022 0.0218,0.123326 -0.0506,0.332876 -0.16078,0.465667 -0.12013,0.144746 -0.13151,0.241437 -0.0284,0.241437 0.20067,0 0.44622,-0.497752 0.39679,-0.804333 -0.0512,-0.317328 0.20681,-0.255243 0.53576,0.128935 0.35893,0.41921 0.37196,0.573122 0.0376,0.444829 -0.18225,-0.06993 -0.254,0.0172 -0.254,0.308456 0,0.223257 -0.12337,0.529293 -0.27415,0.680081 -0.15079,0.150788 -0.21656,0.327681 -0.14615,0.393096 0.0704,0.06541 0.16202,0.02369 0.20359,-0.09273 0.0416,-0.116417 0.15611,-0.211667 0.25449,-0.211667 0.0984,0 0.28011,-0.13335 0.40384,-0.296333 0.18937,-0.249474 0.22579,-0.254811 0.23033,-0.03376 0.007,0.349284 -0.38208,1.173769 -0.55494,1.175437 -0.0753,6.78e-4 -0.0899,-0.07488 -0.0323,-0.168012 0.0576,-0.09313 0.0285,-0.169334 -0.0647,-0.169334 -0.269,0 -0.34091,0.238037 -0.1292,0.427765 0.10663,0.09557 0.42249,0.123635 0.70189,0.06237 0.2794,-0.06127 0.41275,-0.120411 0.29633,-0.131431 -0.25728,-0.02435 -0.28646,-0.697367 -0.0302,-0.697367 0.37204,0 0.66524,0.504367 0.66524,1.144349 0,0.52132 0.0625,0.657708 0.29634,0.647096 0.16298,-0.0074 0.29633,0.06275 0.29633,0.155888 0,0.09313 -0.17008,0.147613 -0.37797,0.121066 -0.28146,-0.03594 -0.35228,0.01864 -0.27738,0.213824 0.0553,0.144149 0.004,0.378648 -0.11439,0.52111 -0.16283,0.196192 -0.16742,0.306568 -0.0189,0.455043 0.14847,0.148476 0.19602,0.126199 0.19602,-0.09184 0,-0.158327 0.0974,-0.287867 0.21638,-0.287867 0.46929,0 1.15482,1.219807 0.80652,1.435077 -0.25368,0.15678 -0.21694,0.42759 0.058,0.42759 0.12882,0 0.2741,-0.1524 0.3228,-0.338667 0.0487,-0.186266 0.21,-0.338666 0.35842,-0.338666 0.3414,0 0.35213,0.270862 0.0159,0.399902 -0.17321,0.06647 -0.254,0.337555 -0.254,0.852367 0,0.576561 -0.07,0.773193 -0.29633,0.832338 l -0.29634,0.07744 0.29634,0.01964 c 0.16298,0.0108 0.30874,0.114892 0.32393,0.231309 0.0152,0.116417 0.0748,-0.207433 0.13242,-0.719667 l 0.10484,-0.931333 0.14112,1.30861 c 0.16191,1.50145 0.0686,1.97835 -0.32331,1.65306 -0.14615,-0.12129 -0.252,-0.13691 -0.252,-0.0372 0,0.23887 0.47501,0.39856 0.59724,0.20079 0.15424,-0.24957 0.41876,-0.19173 0.41876,0.0916 0,0.13943 -0.24765,0.36182 -0.55034,0.49419 -0.3335,0.14584 -0.43357,0.24611 -0.254,0.25448 0.16299,0.008 0.29634,0.0989 0.29634,0.20289 0,0.10934 0.17495,0.15563 0.41485,0.10977 0.43139,-0.0825 0.60115,0.12395 0.60115,0.731 0,0.18626 0.11677,0.32482 0.27374,0.32482 0.20125,0 0.24672,0.1009 0.17166,0.381 -0.0562,0.20955 -0.10315,0.47625 -0.10442,0.59267 -0.002,0.11641 -0.10847,0.21166 -0.2382,0.21166 -0.25572,0 -0.4816,0.41141 -0.31653,0.57649 0.0559,0.0559 0.25065,-0.0319 0.43283,-0.19512 l 0.33123,-0.2967 -0.11709,0.5404 c -0.0679,0.31321 -0.0362,0.69151 0.0752,0.89983 0.22406,0.41864 -0.0685,0.92088 -0.45093,0.77412 -0.12478,-0.0479 -0.22688,0.0225 -0.22688,0.15632 0,0.13706 0.10182,0.2043 0.23311,0.15392 0.14922,-0.0573 0.27386,0.0729 0.34635,0.36172 0.086,0.34269 0.19282,0.43036 0.44422,0.36462 0.18205,-0.0476 0.33099,-0.0175 0.33099,0.0669 0,0.0844 -0.1143,0.15348 -0.254,0.15348 -0.1397,0 -0.254,0.0845 -0.254,0.18769 0,0.11565 -0.16249,0.14691 -0.42333,0.0814 -0.24411,-0.0613 -0.42334,-0.0332 -0.42334,0.0663 0,0.0949 0.15691,0.17256 0.34866,0.17256 0.19177,0 0.30211,0.0753 0.24521,0.16739 -0.0615,0.0994 0.0146,0.12212 0.18712,0.0559 0.19713,-0.0757 0.2512,-0.0478 0.16813,0.0866 -0.11144,0.18033 0.0969,0.27713 0.46047,0.21397 0.0768,-0.0133 0.0913,0.0538 0.0323,0.14928 -0.059,0.0954 -0.3885,0.1804 -0.73225,0.1888 l -0.62501,0.0153 0.55636,0.16047 c 0.306,0.0883 0.51107,0.23378 0.45568,0.32339 -0.0554,0.0896 -0.0253,0.16293 0.0668,0.16293 0.10559,0 0.11365,0.18773 0.0218,0.508 -0.0874,0.30478 -0.0827,0.508005 0.0118,0.508005 0.0866,0 0.15751,0.28776 0.15751,0.63948 v 0.63947 l -0.71966,-0.053 -0.71967,-0.053 0.42333,0.24722 c 0.27653,0.16149 0.42334,0.39721 0.42334,0.67971 0,0.58957 0.32556,0.63865 0.39224,0.0591 0.0542,-0.47093 0.26254,-0.6068 0.45442,-0.29633 0.0576,0.0931 0.024,0.16933 -0.0747,0.16933 -0.0986,0 -0.17933,0.1143 -0.17933,0.254 0,0.1397 0.0762,0.254 0.16934,0.254 0.0931,0 0.16933,0.0807 0.16933,0.17933 0,0.0986 -0.0762,0.13223 -0.16933,0.0747 -0.0934,-0.0577 -0.16934,0.0634 -0.16934,0.27025 0,0.34806 -0.0215,0.35546 -0.29997,0.10343 -0.28321,-0.2563 -0.2962,-0.23196 -0.23253,0.43564 0.0578,0.60665 0.0321,0.67778 -0.18129,0.50069 -0.13678,-0.11352 -0.29884,-0.15627 -0.36012,-0.095 -0.23413,0.23414 -0.094,0.39365 0.34578,0.39365 0.35763,0 0.4126,0.0446 0.25236,0.20483 -0.16022,0.16022 -0.1215,0.25111 0.1778,0.41733 l 0.38264,0.2125 -0.381,0.006 c -0.20955,0.003 -0.381,0.0822 -0.381,0.17534 0,0.0931 0.17145,0.17416 0.381,0.18006 l 0.381,0.0107 -0.39517,0.15839 c -0.43476,0.17425 -0.4103,0.59607 0.0324,0.55863 0.54945,-0.0465 0.26431,0.39738 -0.37914,0.59016 -0.73136,0.21912 -1.16271,0.60511 -0.87497,0.78294 0.0976,0.0603 0.17756,-1.7e-4 0.17756,-0.13452 0,-0.13433 0.20911,-0.28422 0.4647,-0.33308 0.55049,-0.10523 0.77409,-0.004 0.60086,0.27272 -0.13685,0.21844 -0.15472,0.31138 -0.19311,1.0043 -0.0154,0.27672 -0.12312,0.46566 -0.26568,0.46566 -0.13193,0 -0.26528,0.0585 -0.29633,0.1301 -0.031,0.0715 -0.27007,0.29528 -0.53118,0.49718 l -0.47476,0.36709 0.33409,0.1788 c 0.24257,0.12982 0.35216,0.12457 0.40007,-0.0192 0.0363,-0.10888 0.15799,-0.14111 0.27042,-0.0716 0.34698,0.21444 0.0406,0.44095 -0.61541,0.45498 -0.34376,0.007 -0.51071,0.0565 -0.37101,0.10916 0.1397,0.0527 0.4513,0.31336 0.69244,0.57929 0.24115,0.26593 0.56949,0.48351 0.72966,0.48351 0.16017,0 0.24413,0.0762 0.18657,0.16934 -0.15026,0.24314 -0.31494,0.21069 -0.68773,-0.13555 -0.65166,-0.60524 -0.87281,-0.57203 -0.98801,0.14838 -0.0584,0.36547 -0.18606,0.6645 -0.28358,0.6645 -0.0975,0 -0.12795,0.0799 -0.0676,0.17756 0.16497,0.26693 0.58708,-0.14739 0.59018,-0.57929 0.002,-0.26747 0.0402,-0.30092 0.14857,-0.12986 0.17597,0.27772 0.0462,0.87026 -0.19067,0.87026 -0.0931,0 -0.12833,0.15675 -0.0782,0.34834 0.0756,0.28915 0.0493,0.31365 -0.15487,0.14421 -0.19717,-0.16364 -0.29307,-0.14036 -0.48331,0.11732 -0.20786,0.2815 -0.20193,0.32889 0.0476,0.38128 0.39812,0.0836 0.88885,0.54705 0.77474,0.7317 -0.0522,0.0845 -0.24091,0.10726 -0.41936,0.0506 -0.26389,-0.0836 -0.32468,-0.0193 -0.32468,0.34321 0,0.36344 0.0605,0.42696 0.32626,0.3426 0.29542,-0.0938 0.30742,-0.0629 0.127,0.32594 -0.20026,0.43165 -0.45326,0.57833 -0.45326,0.26279 0,-0.0931 -0.1143,-0.16933 -0.254,-0.16933 -0.1397,0 -0.254,0.0435 -0.254,0.0968 0,0.0532 0.1143,0.21106 0.254,0.35076 0.1397,0.1397 0.24799,0.34381 0.24064,0.45357 -0.009,0.14042 -0.0387,0.13683 -0.0988,-0.0121 -0.047,-0.11642 -0.19095,-0.21167 -0.31997,-0.21167 -0.13402,0 -0.19468,0.10398 -0.14151,0.24256 0.0589,0.15351 -0.0985,0.3416 -0.42863,0.51235 -0.56923,0.29435 -0.68907,0.59976 -0.23538,0.59976 0.25031,0 0.24498,0.0323 -0.0423,0.2566 l -0.32869,0.2566 0.46566,-0.10563 c 0.58153,-0.13189 0.60742,0.13668 0.0423,0.4391 -0.42845,0.22929 -0.58275,0.67733 -0.23328,0.67733 0.12357,0 0.10875,0.0985 -0.0423,0.28154 -0.18117,0.21949 -0.18574,0.29724 -0.0207,0.35278 0.25102,0.0845 0.28687,0.55101 0.0423,0.55101 -0.0931,0 -0.16934,-0.0762 -0.16934,-0.16933 0,-0.0931 -0.20955,-0.16332 -0.46566,-0.15596 -0.25736,0.007 -0.35205,0.054 -0.21167,0.10414 0.58373,0.20862 0.9112,0.99554 0.33867,0.81382 -0.19428,-0.0617 -0.33867,-0.0304 -0.33867,0.0733 0,0.0994 0.0762,0.18075 0.16933,0.18075 0.0931,0 0.16934,0.1143 0.16934,0.254 0,0.1397 0.0695,0.254 0.15441,0.254 0.0849,0 0.1192,0.20955 0.0761,0.46566 -0.0431,0.25612 -0.10568,0.65617 -0.13913,0.889 -0.0334,0.23284 -0.13568,0.61384 -0.22719,0.84667 l -0.1664,0.42333 -0.12582,-0.48384 c -0.0725,-0.27858 -0.055,-0.53001 0.041,-0.59266 0.28062,-0.18302 0.39358,-1.54816 0.1281,-1.54816 -0.12467,0 -0.25075,0.20273 -0.28023,0.45051 -0.0306,0.25724 -0.17064,0.46727 -0.32646,0.48957 -0.38461,0.0551 -0.99908,0.61308 -0.88262,0.80153 0.0534,0.0865 0.1597,0.056 0.23612,-0.0676 0.28939,-0.46823 0.35748,0.0344 0.0939,0.69309 -0.34987,0.87441 -0.34564,0.9665 0.0289,0.62757 l 0.30407,-0.27518 -0.0692,0.59249 c -0.0586,0.50177 -0.10768,0.56053 -0.32072,0.38372 -0.21431,-0.17787 -0.24283,-0.13473 -0.19257,0.29145 0.051,0.43235 0.007,0.49474 -0.32202,0.45988 -0.39419,-0.0417 -0.48627,0.10825 -0.2379,0.38747 0.0796,0.0895 0.0431,0.34869 -0.0822,0.5842 -0.1239,0.23283 -0.2264,0.31284 -0.22777,0.1778 -0.005,-0.48997 -0.41949,0.15533 -0.44664,0.69533 -0.0144,0.28765 -0.13001,0.5945 -0.25674,0.68188 -0.15299,0.10547 -0.0454,0.12243 0.31989,0.0505 0.34794,-0.0685 0.55033,-0.0412 0.55033,0.0744 0,0.15679 -0.56544,0.25541 -1.3105,0.22858 -0.11542,-0.004 -0.16808,0.06 -0.11701,0.14266 0.0511,0.0826 0.37409,0.15937 0.71783,0.17055 l 0.62501,0.0203 -0.71098,0.17123 c -0.65587,0.15795 -0.70383,0.20699 -0.61872,0.63256 0.0706,0.35325 -0.0297,0.60021 -0.42816,1.05407 -0.5351,0.60943 -0.53308,0.8108 0.008,0.8108 0.17073,0 0.31043,0.082 0.31043,0.18228 0,0.10297 -0.2763,0.16951 -0.635,0.15293 -0.90295,-0.0417 -1.0142,-0.01 -0.66793,0.19161 0.22775,0.1325 0.25903,0.2341 0.12266,0.3984 -0.13582,0.16366 -0.11364,0.2472 0.086,0.32382 0.14798,0.0568 0.22367,0.17665 0.16823,0.26638 -0.0555,0.0897 -0.19968,0.12519 -0.3205,0.0788 -0.14016,-0.0538 -0.28995,0.15028 -0.41383,0.56376 -0.10678,0.35643 -0.33488,0.79908 -0.50687,0.98371 -0.32979,0.35397 -0.61866,1.15891 -0.35812,0.99789 0.0838,-0.0518 0.1363,0.10049 0.1166,0.33843 -0.0197,0.23795 -0.1005,0.43263 -0.17958,0.43263 -0.0791,0 -0.39529,0.2667 -0.70271,0.59267 -0.32248,0.34192 -0.46096,0.59267 -0.32731,0.59267 0.12743,0 0.23167,-0.0807 0.23167,-0.17932 0,-0.0986 0.0843,-0.12721 0.18742,-0.0635 0.11003,0.068 0.12241,0.15951 0.03,0.22165 -0.0866,0.0582 -0.20848,0.24401 -0.27088,0.41291 -0.0624,0.16887 -0.1902,0.25964 -0.28398,0.20167 -0.094,-0.0581 -0.17053,0.0556 -0.17053,0.25326 0,0.19725 0.0709,0.31481 0.15763,0.26123 0.0867,-0.0536 0.2055,-0.02 0.26399,0.0747 0.0585,0.0947 -0.009,0.17209 -0.14966,0.17209 -0.35808,0 -1.11863,0.36387 -1.11863,0.53518 0,0.0782 0.1143,0.14216 0.254,0.14216 0.32036,0 0.31831,0.0831 -0.0146,0.59117 -0.14773,0.22547 -0.22474,0.48087 -0.17116,0.56759 0.0536,0.0867 -0.0351,0.14722 -0.19707,0.13445 -0.19877,-0.0156 -0.27707,0.0786 -0.24085,0.29012 0.0322,0.18808 -0.0186,0.26868 -0.127,0.20166 -0.0994,-0.0614 -0.18066,-0.2367 -0.18066,-0.38952 0,-0.20696 -0.0489,-0.22892 -0.19182,-0.0861 -0.38284,0.38285 -0.0198,0.77375 0.62195,0.66961 0.35177,-0.0571 0.55336,-0.0314 0.49501,0.063 -0.0541,0.0876 -0.36067,0.15931 -0.68113,0.15931 -0.32048,0 -0.58267,0.0762 -0.58267,0.16934 0,0.0931 0.10497,0.16933 0.23327,0.16933 0.31213,0 0.62337,0.39289 0.47671,0.60179 -0.2112,0.30082 -1.1184,0.62828 -1.18524,0.42781 -0.0849,-0.25478 -0.39239,-0.23014 -0.35878,0.0287 0.0612,0.47091 -0.0263,0.79383 -0.28514,1.05266 -0.164,0.16398 -0.24047,0.44015 -0.19204,0.69347 0.0443,0.23153 0.0132,0.4625 -0.0689,0.51328 -0.0822,0.0508 -0.0976,0.17621 -0.0342,0.27873 0.0745,0.12046 0.0142,0.14764 -0.1704,0.0768 -0.17555,-0.0674 -0.41703,0.0218 -0.62663,0.23141 -0.39375,0.39375 -0.30099,0.66397 0.23168,0.67494 0.31948,0.007 0.30045,0.0399 -0.13699,0.24025 -0.2794,0.12793 -0.41275,0.2388 -0.29633,0.24637 0.12639,0.008 0.21166,0.25251 0.21166,0.60641 0,0.42779 0.0746,0.59267 0.26811,0.59267 0.33128,0 0.22,0.42166 -0.11288,0.42767 -0.13194,0.002 -0.33272,-0.11192 -0.44618,-0.254 -0.18259,-0.22867 -0.20689,-0.22522 -0.21166,0.03 -0.009,0.48551 -0.39237,1.16867 -0.60904,1.08553 -0.24977,-0.0959 -0.10823,0.59925 0.15765,0.7741 0.32505,0.21377 -0.24865,1.02056 -0.64671,0.90944 -0.19063,-0.0532 -0.53712,-0.14486 -0.76995,-0.20366 l -0.42334,-0.10691 0.48841,0.39241 0.48841,0.39243 -0.35487,0.13129 c -0.28333,0.1048 -0.34536,0.25237 -0.3076,0.7318 0.0387,0.49132 -0.0105,0.60054 -0.27052,0.60054 -0.2051,0 -0.27542,-0.0751 -0.19831,-0.21166 0.0956,-0.16934 0.0739,-0.16934 -0.10854,0 -0.18119,0.16818 -9.04098,0.21166 -43.12018,0.21166 h -42.89248 v -0.40926 z M 34.99934,39.400065 C 34.79257,39.206552 33.95594,38.943848 32.80271,38.710324 30.79782,38.304342 29.0032,37.847798 27.38404,37.331834 24.39076,36.377989 22.32631,35.667408 19.42537,34.592461 13.94695,32.562425 14.13839,32.639125 9.6887099,30.691471 6.8627239,29.45452 2.1170739,26.949385 0.72402394,25.95919 L 0.31402393,25.667759 0.64103394,25.283433 C 6.1702539,18.78516 22.76294,6.2814913 32.00118,1.6515253 l 2.58513,-1.29560099 0.46287,0.482254 c 0.31806,0.33138699 0.37016,0.45016099 0.16653,0.37966399 -0.35199,-0.121857 -0.34837,-0.143774 -0.0958,0.581179 0.1103,0.316581 0.37022,0.709148 0.5776,0.872372 0.45852,0.360905 0.88858,2.10545 1.4524,5.891687 0.52107,3.4991837 0.59406,18.6649667 0.10794,22.4288747 -0.15637,1.210733 -0.33144,2.696633 -0.38905,3.302 -0.11833,1.243303 -0.75585,5.097606 -0.87528,5.291667 -0.14086,0.228899 -0.65361,0.133201 -0.9942,-0.185557 z m -0.46989,-2.778066 c 0.20986,-1.038354 0.72345,-5.405615 0.64728,-5.504016 -0.0184,-0.02382 -1.36023,0.03956 -2.98177,0.140841 -4.58057,0.286101 -15.72669,-0.172293 -19.01129,-0.781852 -0.73207,-0.13586 -1.37977,-0.246548 -1.43933,-0.245974 -0.3252,0.0031 3.072,1.433529 6.07237,2.556783 3.01781,1.129785 3.70344,1.374827 5.842,2.087912 4.44259,1.481352 9.99764,3.020912 10.48654,2.906307 0.0865,-0.02027 0.25936,-0.542268 0.3842,-1.160001 z m -1.81496,-7.571916 c 1.38571,-0.100659 2.13667,-0.224157 2.18154,-0.358758 0.0426,-0.127874 0.19063,-0.05209 0.39258,0.201019 l 0.32416,0.406278 -0.089,-0.592667 c -0.36281,-2.417447 -0.99218,-4.986261 -1.30517,-5.327158 -0.0866,-0.09427 -0.10178,0.183444 -0.0363,0.66146 0.0871,0.635342 0.0647,0.79414 -0.0978,0.693715 -0.1159,-0.07163 -0.17752,-0.257238 -0.13693,-0.412461 0.15956,-0.610159 -0.32459,-0.728709 -1.18383,-0.28987 -0.44429,0.226912 -1.1888,0.574499 -1.65447,0.772418 -0.46566,0.197917 -1.03716,0.461183 -1.27,0.585035 -0.23283,0.123852 -0.72813,0.322254 -1.10066,0.440896 -0.37254,0.11864 -0.71544,0.266781 -0.762,0.329201 -0.0466,0.06242 -0.80857,0.36849 -1.69334,0.680153 -0.88476,0.311665 -1.68486,0.621751 -1.778,0.689083 -0.0931,0.06733 -0.41698,0.175375 -0.71966,0.240096 -0.30269,0.06472 -0.55034,0.19116 -0.55034,0.280976 0,0.08982 -0.0953,0.147943 -0.21166,0.129172 -0.11642,-0.01877 -0.32597,0.0094 -0.46567,0.06251 -0.1397,0.05315 -0.7874,0.235976 -1.43933,0.406271 l -1.18534,0.30963 0.59267,0.106143 c 0.93069,0.166683 9.84523,0.157069 12.18845,-0.01314 z m -21.2923,-5.170127 c 0.62225,-0.931333 1.40331,-2.074333 1.73569,-2.54 0.33237,-0.465667 0.73379,-1.037167 0.89205,-1.27 0.48545,-0.714224 2.25445,-3.050278 3.55167,-4.690156 2.22738,-2.815739 3.42065,-4.168455 5.85502,-6.6373767 1.32188,-1.340642 2.24427,-2.354194 2.04975,-2.252337 -0.37267,0.195147 -5.55772,3.6657047 -5.88836,3.9413097 -0.10595,0.08832 -1.00509,0.763041 -1.99808,1.499392 -6.19609,4.594673 -15.5512161,12.63944 -15.5512161,13.372968 0,0.213768 1.87697,1.317901 4.3883,2.581431 l 1.93296,0.972536 0.950426,-1.642215 c 0.52273,-0.903221 1.4595301,-2.404219 2.0817901,-3.335552 z m 5.61228,4.444999 c 0.23081,-1.592317 0.939,-5.061222 1.11489,-5.460999 0.082,-0.186267 0.19585,-0.567267 0.25311,-0.846667 0.16093,-0.785214 0.94352,-3.350622 1.12562,-3.689888 0.0895,-0.166771 0.11758,-0.376321 0.0624,-0.465667 -0.0552,-0.08934 -0.0197,-0.162445 0.0789,-0.162445 0.0986,0 0.17933,-0.09756 0.17933,-0.216807 0,-0.740446 2.13071,-5.032526 2.49829,-5.032526 0.41853,0 2.89256,1.549461 4.1332,2.588582 0.65018,0.544562 1.25412,0.927901 1.3594,0.862836 0.10591,-0.06546 0.1426,-0.0413 0.0832,0.05479 -0.0584,0.09453 0.55176,0.77305 1.35596,1.50783 0.8042,0.73478 1.54508,1.438581 1.64639,1.564003 0.17868,0.22119 1.00126,1.148514 1.86306,2.100292 0.23191,0.256117 0.47863,0.465667 0.54827,0.465667 0.0696,0 0.0352,-0.09144 -0.0766,-0.2032 -0.23621,-0.236208 -0.27104,-0.643467 -0.055,-0.643467 0.14244,0 0.42347,0.920583 0.38769,1.27 -0.01,0.09313 0.13979,0.359834 0.33184,0.592667 0.28292,0.343022 0.32666,0.359085 0.23053,0.08467 -0.0652,-0.186267 -0.22372,-0.776207 -0.35215,-1.310977 -0.12843,-0.534772 -0.30266,-1.106272 -0.38719,-1.27 -0.0845,-0.16373 -0.39933,-1.05969 -0.69956,-1.991023 -0.30023,-0.931334 -0.62167,-1.769534 -0.7143,-1.862667 -0.11185,-0.112463 -0.13629,-0.05559 -0.0728,0.169333 0.28721,1.016845 0.30953,1.27 0.11198,1.27 -0.11337,0 -0.16203,-0.114081 -0.10834,-0.254 0.0536,-0.1397 0.0336,-0.254 -0.0444,-0.254 -0.078,0 -0.18355,-0.256858 -0.23449,-0.570797 -0.051,-0.313937 -0.2575,-0.9327 -0.459,-1.375026 -0.26229,-0.57576 -0.31443,-0.856171 -0.18353,-0.987069 0.27908,-0.279083 0.21776,-0.524219 -0.0712,-0.284441 -0.1397,0.115941 -0.26352,0.163371 -0.27517,0.1054 -0.04,-0.199275 -0.093,-0.360138 -0.23012,-0.698067 -0.5101,-1.257537 -0.59422,-1.510251 -0.58464,-1.756345 0.007,-0.186609 0.0602,-0.15258 0.16387,0.105345 0.0842,0.20955 0.19125,0.381 0.23781,0.381 0.0466,0 0.0198,-0.17145 -0.0595,-0.381 -0.0814,-0.215092 -0.26127,-0.359814 -0.41306,-0.332349 -0.16807,0.03041 -0.30931,-0.112439 -0.37671,-0.381 -0.0593,-0.236308 -0.17578,-0.429651 -0.25882,-0.429651 -0.083,0 -0.15097,-0.104969 -0.15097,-0.233266 0,-0.128296 -0.11346,-0.32743 -0.25214,-0.4425187 -0.13867,-0.115091 -0.22151,-0.258799 -0.18409,-0.319354 0.0374,-0.06056 -0.15391,-0.435621 -0.42519,-0.833479 -0.27129,-0.397858 -0.49325,-0.80503 -0.49325,-0.90483 0,-0.0998 -0.11826,-0.136073 -0.26279,-0.08061 -0.1518,0.05825 -0.21876,0.02959 -0.15854,-0.06785 0.0573,-0.09278 -0.0143,-0.287206 -0.15911,-0.432057 -0.23826,-0.238264 -0.33433,-0.196852 -1.00795,0.434523 -0.40953,0.383838 -0.87902,0.796176 -1.04331,0.916308 -0.16429,0.120132 -0.24501,0.305308 -0.17937,0.411504 0.0732,0.118516 0.031,0.159195 -0.10934,0.105334 -0.36633,-0.140574 -5.13218,5.0519937 -4.93285,5.3745187 0.049,0.07929 0.0246,0.123228 -0.0543,0.09764 -0.25683,-0.08332 -1.44223,1.365118 -1.30788,1.598088 0.0692,0.119927 0.0664,0.164528 -0.006,0.09911 -0.0726,-0.06541 -0.219,-0.02731 -0.32536,0.08467 -0.69044,0.726934 -3.47128,4.53404 -4.85157,6.642037 -0.4865,0.742994 -1.09293,1.655699 -1.34763,2.028232 -0.25469,0.372534 -0.59851,0.944034 -0.76405,1.27 -0.16553,0.325967 -0.35513,0.630767 -0.42132,0.677334 -1.0090601,0.709835 -0.36983,1.084841 2.42547,1.422925 1.10213,0.133299 2.04828,0.286771 2.10256,0.341051 0.0543,0.05428 0.46353,0.09869 0.90946,0.09869 h 0.81077 l 0.0798,-0.550333 z M 35.6061,11.668555 C 35.34226,8.1237233 34.61568,3.6334063 34.07642,2.2150563 l -0.15976,-0.42021 -1.9212,0.982941 c -2.31368,1.18375 -4.35742,2.364399 -4.35742,2.517243 0,0.06131 0.22207,0.343698 0.4935,0.627531 1.9318,2.020129 4.70781,7.8509367 6.37269,13.3853947 0.25215,0.8382 0.60111,1.974735 0.77547,2.525634 0.17435,0.550897 0.33478,1.122397 0.3565,1.27 0.1411,0.958701 0.11355,-9.504994 -0.0301,-11.435035 z m 6.59461,22.888842 v -3.46189 l 0.40867,-0.47511 0.40867,-0.475109 h 4.92063 4.92062 l 0.3857,0.385335 0.38571,0.385334 0.0518,3.551666 0.0518,3.551665 h -0.68684 -0.68683 v -1.524 -1.524 H 47.95797 43.5553 v 1.524 1.524 h -0.67733 -0.67733 z m 10.1574,-1.745109 c -0.005,-0.909159 0.0511,-0.898553 -4.4966,-0.849691 l -4.22147,0.04536 -0.0526,0.635 -0.0525,0.635 h 4.41289 4.41289 l -0.003,-0.465667 z m 3.12757,4.791363 -0.41564,-0.415635 v -3.563698 -3.563696 h 0.67733 0.67734 v 2.929466 c 0,2.052696 0.0608,2.990283 0.2032,3.132667 0.28861,0.288615 8.11031,0.288615 8.39893,0 0.14238,-0.142384 0.2032,-1.079971 0.2032,-3.132667 v -2.929466 h 0.67733 0.67734 v 3.563696 3.563698 l -0.41564,0.415635 -0.41564,0.415637 h -4.92606 -4.92606 z m 17.53369,-2.632363 v -3.048 h -2.54 -2.54 v -0.933556 -0.933557 l 5.79967,0.04456 5.79967,0.04456 v 0.846667 0.846667 l -2.59587,0.04682 -2.59585,0.04682 0.0558,3.043654 0.0559,3.043655 -0.71967,-1.39e-4 -0.71967,-1.37e-4 z m 8.51093,2.789008 c -0.54819,-0.383966 -0.71971,-1.270574 -0.71971,-3.720341 0,-4.126306 -0.21498,-3.979333 5.82068,-3.979333 6.14347,0 5.86144,-0.195546 5.86144,4.064 0,2.830855 -0.1461,3.550222 -0.76959,3.78948 -0.65614,0.251783 -9.81099,0.113639 -10.19282,-0.153806 z m 9.43245,-1.761876 c 0.18815,-0.351564 0.23787,-3.062302 0.0678,-3.696997 l -0.10285,-0.383863 -4.25517,0.0452 -4.25517,0.0452 -0.0494,1.778 c -0.0272,0.9779 -0.007,1.94945 0.0456,2.159 l 0.0949,0.381 h 4.13948 4.13949 z m 2.88462,-1.441023 v -3.46189 l 0.40867,-0.47511 0.40868,-0.475109 h 5.61732 5.61732 l 0.40867,0.475109 0.40868,0.47511 v 3.46189 3.461891 h -0.67343 -0.67343 l -0.0462,-3.005666 -0.0462,-3.005667 -2.159,-0.04739 -2.159,-0.04739 v 3.053058 3.053059 h -0.67733 -0.67733 v -3.048 -3.048 h -2.09855 c -2.52329,0 -2.30412,-0.31541 -2.30412,3.31585 v 2.78015 h -0.67733 -0.67734 z m 14.25683,-0.08977 0.0518,-3.551666 0.3857,-0.385334 0.38571,-0.385335 h 4.92062 4.92062 l 0.40868,0.475109 0.40867,0.47511 v 3.46189 3.461891 h -0.67734 -0.67733 v -1.524 -1.524 h -4.40267 -4.40266 v 1.524 1.524 h -0.68684 -0.68684 z m 10.09506,-1.824668 -0.0526,-0.635 -4.27171,-0.04523 -4.27171,-0.04523 -0.10688,0.425853 c -0.23702,0.94435 -0.28309,0.934612 4.42188,0.934612 h 4.33353 z m 7.82144,2.33286 v -3.043472 l -2.49766,-0.04686 -2.49767,-0.04686 V 30.99196 30.145293 l 5.71121,-0.04458 5.7112,-0.04458 0.10169,0.405121 c 0.0559,0.222816 0.0767,0.623877 0.0461,0.891247 l -0.0556,0.486128 -2.58234,0.04674 -2.58233,0.04674 v 3.04359 3.043589 h -0.67733 -0.67734 z m 7.9223,-0.935721 0.0483,-3.979472 h 0.67135 0.67138 v 3.979333 3.979333 l -0.71967,1.39e-4 -0.71967,1.39e-4 z m 2.77876,3.20082 0.0516,-0.778376 3.89467,-2.227291 3.89466,-2.227292 -3.937,-0.04545 -3.937,-0.04545 v -0.928213 -0.928212 h 5.75734 5.75733 l -0.005,0.804333 -0.005,0.804333 -0.88421,0.524241 c -0.48631,0.288332 -2.28058,1.317032 -3.98729,2.286 l -3.1031,1.761759 3.9921,0.0454 3.9921,0.0454 v 0.843602 0.843601 h -5.76661 -5.76662 l 0.0516,-0.778374 z m 12.83628,-2.403954 c 0,-5.057108 -0.34387,-4.776338 5.84979,-4.776338 6.17694,0 5.73222,-0.349838 5.75818,4.529666 l 0.0183,3.429 h -0.74513 -0.74512 l 0.0543,-1.524389 0.0543,-1.524388 -4.40266,3.39e-4 -4.40267,3.38e-4 v 1.481662 1.48166 l -0.71967,0.05207 -0.71966,0.05207 v -3.201802 z m 10.12789,-2.194005 -0.0526,-0.635 -4.27567,-0.04524 c -3.35703,-0.03552 -4.27844,8.47e-4 -4.28862,0.169334 -0.007,0.118015 -0.0406,0.36262 -0.0745,0.543565 -0.10881,0.581898 0.0414,0.602342 4.42565,0.602342 h 4.31822 z m 3.3264,4.960696 -0.41563,-0.415635 v -3.068723 -3.068723 l 0.49498,-0.494973 0.49498,-0.494975 h 5.27119 5.27121 l -0.0512,0.889 -0.0512,0.889 -4.99533,0.08467 -4.99533,0.08467 v 2.116667 2.116666 l 5.03766,0.04485 5.03767,0.04485 v 0.844147 0.844147 h -5.34171 -5.34168 z m 12.45371,-3.563696 v -3.979333 h 0.67733 0.67733 v 3.979333 3.979333 h -0.67733 -0.67733 z m 3.43093,3.720341 c -0.5482,-0.383966 -0.7197,-1.270574 -0.7197,-3.720341 0,-4.105336 -0.18735,-3.979333 5.91643,-3.979333 6.06727,0 5.83291,-0.182208 5.73663,4.460062 l -0.0556,2.682062 -0.47511,0.408271 -0.4751,0.408271 h -4.77889 c -4.01478,0 -4.83799,-0.04141 -5.14863,-0.258992 z m 9.43244,-1.761876 c 0.18772,-0.35076 0.23803,-3.061743 0.0686,-3.694132 l -0.10211,-0.381 h -4.29824 -4.29825 v 2.088444 c 0,1.148646 0.0508,2.139246 0.11289,2.201334 0.0621,0.06209 1.96441,0.112889 4.22738,0.112889 h 4.11447 z m 2.88463,-1.958465 v -3.979333 h 5.06897 c 6.90081,0 6.44569,-0.328202 6.44569,4.648257 v 3.310409 h -0.67733 -0.67733 v -2.78015 c 0,-1.529083 -0.0462,-2.900683 -0.10279,-3.048 -0.09,-0.234513 -0.63795,-0.26785 -4.40267,-0.26785 h -4.29988 v 3.048 3.048 h -0.67733 -0.67733 z M 43.33058,22.456627 42.37004,21.456629 V 15.76796 c 0,-3.128767 0.0434,-5.688667 0.0965,-5.688667 0.0531,0 0.92763,0.817355 1.94341,1.816346 l 1.84689,1.816347 0.0462,2.797986 0.0462,2.797988 8.43581,0.08467 8.4358,0.08467 0.0309,1.989699 0.0309,1.989701 -9.4958,-3.4e-5 -9.4958,-3.2e-5 z m 23.42576,0.191975 C 65.44087,21.262238 65.5116,21.526691 65.55076,18.140546 l 0.0355,-3.065919 1.98092,-1.994142 1.98091,-1.994144 0.0847,0.955365 0.0847,0.955365 7.32367,-0.02796 7.32367,-0.02796 v 2.040403 2.040402 l -6.64634,0.02055 c -3.65548,0.01131 -6.95113,0.03035 -7.32366,0.04233 l -0.67734,0.02179 -0.0847,1.14315 -0.0847,1.143153 8.509,-1.53e-4 8.509,-1.5e-4 v 2.032 2.032 l -9.525,-0.0037 -9.525,-0.0037 -0.7597,-0.80064 z m 23.12452,-0.204865 -1.00317,-0.993898 -0.009,-1.155607 c -0.005,-0.635583 0.0161,-3.098705 0.0467,-5.473605 0.0307,-2.3749 0.039,-4.3942 0.0185,-4.487334 -0.11817,-0.5370907 0.18757,-0.298736 1.95018,1.520339 l 1.94734,2.009714 v 2.669981 c 0,1.468489 0.0632,2.709038 0.14044,2.756775 0.19932,0.12319 14.74911,0.170744 14.87125,0.0486 0.0555,-0.05547 -0.37238,-0.544258 -0.95079,-1.086206 l -1.05163,-0.985357 -0.0276,-3.297592 -0.0276,-3.297591 -6.38913,-3.39e-4 -6.38914,-3.38e-4 -1.52438,-1.5173237 -1.52439,-1.517324 0.4522,-0.471997 0.4522,-0.471996 h 8.49388 8.49388 l 0.95711,1.003429 0.9571,1.00343 v 6.3751407 6.375141 l -0.9571,1.00343 -0.95711,1.003429 -8.48323,-0.0095 -8.48322,-0.0095 -1.00318,-0.993899 z m 30.72118,-5.268419 v -6.28131 l 2.09612,-2.1006897 2.09613,-2.100691 h 4.13602 4.13603 l -0.0162,1.989666 -0.0163,1.9896667 -4.1415,0.02117 -4.14163,0.02117 -0.0444,6.371165 -0.0444,6.371165 h -2.02997 -2.02996 z m 15.87783,5.221097 -0.97084,-1.056455 -0.003,-3.135428 -0.003,-3.135429 1.90764,-1.902238 c 2.20677,-2.200499 2.15639,-2.176824 2.15627,-1.013238 l -10e-5,0.889 5.79977,-0.05552 c 3.18987,-0.03053 6.5046,-0.0044 7.36609,0.05814 l 1.56633,0.113654 v 1.92975 1.929752 l -7.40734,0.04411 -7.40733,0.04411 0.006,1.170085 0.006,1.170084 8.23461,-0.02675 c 4.52904,-0.01471 8.35476,0.01935 8.5016,0.0757 0.22146,0.08498 0.26697,0.431339 0.26697,2.031664 v 1.929217 l -9.525,-0.0019 -9.525,-0.0019 -0.97084,-1.056455 z m 23.27332,-0.005 -1.05574,-1.065205 0.0446,-5.750462 0.0446,-5.7504607 1.98967,1.9752807 1.98967,1.975281 v 2.806805 2.806805 l 8.41635,0.04391 8.41636,0.04391 0.0677,1.989666 0.0676,1.989667 h -9.46257 -9.46256 z m 22.33285,-2.056396 0.006,-3.1216 0.77072,-0.770731 c 0.42391,-0.423904 0.84973,-0.721911 0.94629,-0.662238 0.0994,0.06144 0.12495,0.02663 0.0589,-0.08026 -0.0666,-0.107765 0.41799,-0.735694 1.12935,-1.463393 l 1.24603,-1.274635 7.35106,0.0051 c 4.04311,0.0028 7.37271,-0.05977 7.39914,-0.13905 0.0264,-0.07928 -0.41065,-0.584744 -0.97126,-1.123242 l -1.01932,-0.979091 V 8.6192093 6.5125383 l 1.9508,0.04771 1.95079,0.04771 0.0389,8.4243327 0.0389,8.424335 -1.98966,-1e-6 h -1.98967 v -3.217334 -3.217333 h -6.43467 -6.43466 v 3.217333 3.217334 h -2.02721 -2.02721 l 0.006,-3.121601 z M 59.29245,14.86833 c -0.006,-0.07281 -0.006,-1.018847 4e-5,-2.102311 l 0.0109,-1.969938 -1.06955,-0.114538 c -0.58825,-0.063 -3.48021,-0.09304 -6.42658,-0.06677 l -5.35704,0.04777 -1.99778,-1.9836967 -1.99778,-1.9837 9.398,0.0026 9.398,0.0026 0.96798,0.969828 0.96798,0.969826 0.0206,3.1326667 0.0206,3.132666 -1.96226,0.04771 c -1.07924,0.02624 -1.96717,-0.01187 -1.97317,-0.08467 z m 116.45119,-0.0095 c -0.0483,-0.0781 -0.0733,-1.032225 -0.0557,-2.120289 0.021,-1.296563 -0.0314,-2.002619 -0.15204,-2.048874 -0.10126,-0.03882 -2.99678,-0.07805 -6.43448,-0.08719 l -6.25038,-0.01661 -1.94661,-1.9466067 -1.94662,-1.946603 h 9.34671 9.34673 l 1.01467,1.053131 1.0147,1.053131 -0.033,3.0532017 -0.033,3.053202 -1.89165,0.04775 c -1.04042,0.02627 -1.93115,-0.01614 -1.97941,-0.09424 z m 6.36458,-4.711808 -0.0465,-3.6236997 h 2.03615 2.03615 v 1.631625 1.631625 l -1.98967,1.9920747 -1.98967,1.992074 z M 65.56871,8.6845853 v -1.991929 h 10.49866 10.49867 l -3e-5,1.989666 -4e-5,1.9896667 -10.49863,0.0023 -10.49863,0.0023 V 8.6846623 Z m 46.748,1.9091697 c -0.0802,-0.0501 -0.15623,-0.9483487 -0.16897,-1.9960987 l -0.0231,-1.905 h 4.70349 4.70349 l -1.94643,1.934376 -1.94644,1.9343737 -2.58809,0.06173 c -1.42345,0.03395 -2.65371,0.02073 -2.7339,-0.02938 z m 23.25719,0.0077 c -0.0388,-0.0388 -0.0705,-0.9347297 -0.0705,-1.9909497 v -1.920404 l 10.45633,0.04362 10.45634,0.04363 0.0479,1.905 0.0479,1.9049997 -0.4712,-0.0015 c -0.25918,-8.46e-4 -4.95434,0.0182 -10.43369,0.04233 -5.47937,0.02414 -9.99422,0.01214 -10.033,-0.02667 z"
       id="path13200"
       clip-path="url(#clipPath17038)"
       inkscape:export-filename="ceotech.logo.white.svg"
       inkscape:export-xdpi="96"
       inkscape:export-ydpi="96" /></g></svg>
