<?xml version="1.0" encoding="UTF-8" standalone="no"?>
<!-- Created with Inkscape (http://www.inkscape.org/) -->

<svg
   width="209.86966mm"
   height="41.536705mm"
   viewBox="0 0 209.86966 41.536705"
   version="1.1"
   id="svg35"
   xml:space="preserve"
   xmlns:inkscape="http://www.inkscape.org/namespaces/inkscape"
   xmlns:sodipodi="http://sodipodi.sourceforge.net/DTD/sodipodi-0.dtd"
   xmlns="http://www.w3.org/2000/svg"
   xmlns:svg="http://www.w3.org/2000/svg"><sodipodi:namedview
     id="namedview37"
     pagecolor="#505050"
     bordercolor="#eeeeee"
     borderopacity="1"
     inkscape:showpageshadow="0"
     inkscape:pageopacity="0"
     inkscape:pagecheckerboard="0"
     inkscape:deskcolor="#505050"
     inkscape:document-units="mm"
     showgrid="false" /><defs
     id="defs32"><clipPath
       clipPathUnits="userSpaceOnUse"
       id="clipPath17365"><rect
         style="fill:#00ff00;fill-opacity:1;stroke-width:0.264583"
         id="rect17367"
         width="209.86967"
         height="41.536705"
         x="0"
         y="0" /></clipPath></defs><g
     inkscape:label="Layer 1"
     inkscape:groupmode="layer"
     id="layer1"><path
       style="fill:#000000;stroke-width:0.169333"
       d="m -38.825767,59.451271 v -95.250005 h 146.811987 146.812 v 95.250005 95.249999 h -18.46749 -18.46751 l 0.0801,-0.508 c 0.044,-0.2794 0.0105,-0.508 -0.0745,-0.508 -0.085,0 -0.15457,0.23311 -0.15457,0.51799 0,0.28491 -0.0711,0.47408 -0.15792,0.42039 -0.30289,-0.18718 -0.14823,-1.13066 0.20686,-1.26201 0.31506,-0.11655 0.30583,-0.14761 -0.1532,-0.51643 l -0.48841,-0.39241 0.42334,0.10691 c 0.23283,0.0588 0.57932,0.15046 0.76996,0.20366 0.39805,0.11112 0.97175,-0.69567 0.6467,-0.90944 -0.26587,-0.17485 -0.40742,-0.86997 -0.15765,-0.77411 0.21668,0.0831 0.59998,-0.60001 0.60904,-1.08552 0.005,-0.25524 0.0291,-0.25869 0.21167,-0.03 0.11345,0.14208 0.31423,0.25638 0.44617,0.254 0.33288,-0.006 0.44416,-0.42767 0.11288,-0.42767 -0.19351,0 -0.26811,-0.16488 -0.26811,-0.59267 0,-0.35391 -0.0853,-0.5982 -0.21166,-0.60642 -0.11642,-0.008 0.0169,-0.11843 0.29633,-0.24636 0.43744,-0.2003 0.45647,-0.23368 0.13699,-0.24025 -0.53267,-0.011 -0.62543,-0.28119 -0.23168,-0.67495 0.2096,-0.2096 0.45109,-0.29877 0.62663,-0.23141 0.18456,0.0708 0.24486,0.0436 0.17041,-0.0768 -0.0634,-0.10251 -0.048,-0.22795 0.0342,-0.27872 0.0822,-0.0508 0.11317,-0.28175 0.0689,-0.51328 -0.0484,-0.25333 0.028,-0.52949 0.19204,-0.69347 0.25883,-0.25883 0.34631,-0.58175 0.28514,-1.05266 -0.0336,-0.25888 0.27387,-0.28352 0.35879,-0.0287 0.0668,0.20047 0.97404,-0.12699 1.18523,-0.42781 0.14666,-0.2089 -0.16458,-0.60179 -0.47671,-0.60179 -0.1283,0 -0.23327,-0.0762 -0.23327,-0.16933 0,-0.0931 0.26219,-0.16934 0.58267,-0.16934 0.32047,0 0.62698,-0.0717 0.68113,-0.15931 0.0584,-0.0944 -0.14324,-0.12007 -0.49501,-0.063 -0.64172,0.10414 -1.00479,-0.28676 -0.62195,-0.66961 0.14287,-0.14287 0.19182,-0.1209 0.19182,0.0861 0,0.15282 0.0813,0.32812 0.18067,0.38952 0.10844,0.067 0.1592,-0.0135 0.127,-0.20166 -0.0362,-0.21146 0.0421,-0.30578 0.24084,-0.29012 0.16198,0.0127 0.25066,-0.0477 0.19707,-0.13445 -0.0536,-0.0867 0.0234,-0.34212 0.17116,-0.56759 0.33291,-0.50808 0.33496,-0.59117 0.0146,-0.59117 -0.1397,0 -0.254,-0.064 -0.254,-0.14216 0,-0.17131 0.76055,-0.53518 1.11864,-0.53518 0.14081,0 0.20816,-0.0774 0.14965,-0.17209 -0.0585,-0.0947 -0.17729,-0.12825 -0.26399,-0.0747 -0.0867,0.0536 -0.15763,-0.064 -0.15763,-0.26123 0,-0.19766 0.0766,-0.31134 0.17054,-0.25326 0.0938,0.058 0.22157,-0.0328 0.28397,-0.20167 0.0624,-0.1689 0.1843,-0.35469 0.27088,-0.41291 0.0924,-0.0621 0.0801,-0.15365 -0.03,-0.22165 -0.10309,-0.0637 -0.18742,-0.0351 -0.18742,0.0635 0,0.0986 -0.10424,0.17932 -0.23166,0.17932 -0.13366,0 0.005,-0.25075 0.3273,-0.59267 0.30742,-0.32596 0.62365,-0.59266 0.70272,-0.59266 0.0791,0 0.15988,-0.19468 0.17957,-0.43263 0.0197,-0.23795 -0.0328,-0.39025 -0.1166,-0.33843 -0.26053,0.16102 0.0283,-0.64393 0.35812,-0.9979 0.172,-0.18462 0.40009,-0.62728 0.50687,-0.98371 0.12388,-0.41348 0.27368,-0.61754 0.41383,-0.56376 0.12082,0.0464 0.26504,0.0108 0.3205,-0.0788 0.0554,-0.0897 -0.0202,-0.2096 -0.16823,-0.26638 -0.19966,-0.0766 -0.22185,-0.16015 -0.086,-0.32381 0.13636,-0.16431 0.10509,-0.26591 -0.12267,-0.39841 -0.34627,-0.20143 -0.23502,-0.23335 0.66794,-0.19161 0.3587,0.0166 0.635,-0.05 0.635,-0.15292 0,-0.10026 -0.1397,-0.18228 -0.31044,-0.18228 -0.54117,0 -0.54319,-0.20138 -0.008,-0.81081 0.39849,-0.45385 0.49881,-0.70082 0.42816,-1.05407 -0.0851,-0.42557 -0.0371,-0.47461 0.61873,-0.63256 l 0.71098,-0.17123 -0.62501,-0.0203 c -0.34375,-0.0112 -0.66679,-0.0879 -0.71784,-0.17055 -0.0511,-0.0826 0.002,-0.14681 0.11701,-0.14265 0.74507,0.0268 1.3105,-0.0718 1.3105,-0.22859 0,-0.11556 -0.20238,-0.14292 -0.55033,-0.0744 -0.36534,0.072 -0.47288,0.055 -0.31989,-0.0505 0.12673,-0.0874 0.24227,-0.39422 0.25675,-0.68188 0.0271,-0.54 0.44165,-1.18529 0.44663,-0.69533 0.002,0.13504 0.10387,0.055 0.22777,-0.1778 0.12532,-0.23551 0.16178,-0.49471 0.0822,-0.5842 -0.24838,-0.27922 -0.1563,-0.4292 0.23789,-0.38747 0.32931,0.0349 0.37299,-0.0275 0.32202,-0.45988 -0.0503,-0.42618 -0.0217,-0.46932 0.19257,-0.29145 0.21304,0.17681 0.26215,0.11806 0.32072,-0.38372 l 0.0692,-0.59249 -0.30407,0.27518 c -0.37452,0.33893 -0.37875,0.24684 -0.0289,-0.62757 0.26356,-0.65874 0.19548,-1.16132 -0.0939,-0.69308 -0.0764,0.12366 -0.18267,0.15409 -0.23611,0.0676 -0.11647,-0.18846 0.49801,-0.74648 0.88261,-0.80154 0.15582,-0.0223 0.29586,-0.23233 0.32646,-0.48957 0.0295,-0.24778 0.15557,-0.45051 0.28023,-0.45051 0.26548,0 0.15252,1.36514 -0.1281,1.54816 -0.0961,0.0627 -0.1135,0.31408 -0.0411,0.59266 l 0.12582,0.48384 0.1664,-0.42333 c 0.0915,-0.23283 0.19375,-0.61383 0.2272,-0.84667 0.0334,-0.23283 0.096,-0.63288 0.13912,-0.889 0.0431,-0.25611 0.009,-0.46566 -0.0761,-0.46566 -0.0849,0 -0.15441,-0.1143 -0.15441,-0.254 0,-0.1397 -0.0762,-0.254 -0.16933,-0.254 -0.0931,0 -0.16934,-0.0813 -0.16934,-0.18075 0,-0.10368 0.14439,-0.13491 0.33867,-0.0733 0.57253,0.18172 0.24506,-0.6052 -0.33867,-0.81382 -0.14037,-0.0502 -0.0457,-0.0968 0.21167,-0.10414 0.25612,-0.007 0.46567,0.0628 0.46567,0.15596 0,0.0931 0.0762,0.16934 0.16933,0.16934 0.24453,0 0.20869,-0.46654 -0.0423,-0.55102 -0.16502,-0.0555 -0.16045,-0.13329 0.0207,-0.35278 0.15108,-0.18302 0.1659,-0.28153 0.0423,-0.28153 -0.34947,0 -0.19518,-0.44804 0.23327,-0.67734 0.56508,-0.30242 0.53919,-0.57099 -0.0423,-0.43909 l -0.46567,0.10562 0.32869,-0.2566 c 0.28731,-0.22428 0.29264,-0.25659 0.0423,-0.25659 -0.4537,0 -0.33386,-0.30541 0.23537,-0.59977 0.33018,-0.17075 0.48754,-0.35884 0.42863,-0.51235 -0.0532,-0.13858 0.007,-0.24255 0.14151,-0.24255 0.12902,0 0.273,0.0952 0.31998,0.21167 0.0601,0.14892 0.0894,0.15251 0.0988,0.0121 0.007,-0.10977 -0.10094,-0.31388 -0.24064,-0.45358 -0.32152,-0.32152 -0.32152,-0.44752 0,-0.44752 0.1397,0 0.254,0.0762 0.254,0.16933 0,0.31555 0.253,0.16886 0.45325,-0.26279 0.18043,-0.38887 0.16842,-0.41969 -0.127,-0.32594 -0.26577,0.0844 -0.32625,0.0208 -0.32625,-0.3426 0,-0.36256 0.0608,-0.42686 0.32441,-0.34319 0.17844,0.0566 0.36713,0.0339 0.41935,-0.0506 0.11411,-0.18465 -0.37662,-0.64814 -0.77473,-0.7317 -0.24955,-0.0524 -0.25548,-0.0998 -0.0476,-0.38128 0.19024,-0.25768 0.28614,-0.28096 0.48331,-0.11732 0.20417,0.16945 0.23048,0.14494 0.15487,-0.14421 -0.0501,-0.19159 -0.0149,-0.34834 0.0782,-0.34834 0.23682,0 0.36664,-0.59254 0.19067,-0.87026 -0.10837,-0.17105 -0.14664,-0.13761 -0.14857,0.12986 -0.003,0.43191 -0.42521,0.84622 -0.59018,0.57929 -0.0604,-0.0977 -0.0299,-0.17756 0.0676,-0.17756 0.0975,0 0.22513,-0.29902 0.28358,-0.6645 0.1152,-0.72041 0.33635,-0.75362 0.98801,-0.14838 0.37279,0.34624 0.53747,0.3787 0.68773,0.13555 0.0576,-0.0931 -0.0264,-0.16933 -0.18657,-0.16933 -0.16017,0 -0.48851,-0.21758 -0.72966,-0.48351 -0.24114,-0.26593 -0.55273,-0.52662 -0.69243,-0.5793 -0.1397,-0.0527 0.0272,-0.10181 0.37101,-0.10916 0.65603,-0.014 0.96238,-0.24053 0.6154,-0.45498 -0.11243,-0.0695 -0.23412,-0.0373 -0.27042,0.0716 -0.0479,0.14373 -0.1575,0.14898 -0.40007,0.0192 l -0.33409,-0.1788 0.47476,-0.36709 c 0.26111,-0.20189 0.50014,-0.42563 0.53118,-0.49718 0.031,-0.0716 0.1644,-0.13009 0.29633,-0.13009 0.14256,0 0.25036,-0.18894 0.26569,-0.46567 0.0384,-0.69292 0.0562,-0.78585 0.1931,-1.0043 0.17323,-0.27646 -0.0504,-0.37795 -0.60086,-0.27272 -0.25559,0.0489 -0.4647,0.19875 -0.4647,0.33309 0,0.13434 -0.0799,0.19487 -0.17756,0.13452 -0.28773,-0.17784 0.14361,-0.56382 0.87498,-0.78295 0.64345,-0.19278 0.92859,-0.63662 0.37913,-0.59016 -0.44268,0.0374 -0.46715,-0.38437 -0.0324,-0.55862 l 0.39517,-0.15839 -0.381,-0.0107 c -0.20948,-0.006 -0.38093,-0.0869 -0.38093,-0.18006 0,-0.0931 0.17145,-0.17204 0.381,-0.17534 l 0.381,-0.006 -0.38264,-0.21249 c -0.2993,-0.16622 -0.33803,-0.25711 -0.1778,-0.41734 0.16024,-0.16022 0.10527,-0.20483 -0.25236,-0.20483 -0.43979,0 -0.57992,-0.15951 -0.34578,-0.39364 0.0613,-0.0613 0.22334,-0.0185 0.36012,0.095 0.21338,0.17708 0.23914,0.10596 0.18129,-0.5007 -0.0637,-0.6676 -0.0507,-0.69194 0.23253,-0.43563 0.27849,0.25203 0.29997,0.24462 0.29997,-0.10344 0,-0.20681 0.0759,-0.32798 0.16934,-0.27025 0.0931,0.0576 0.16933,0.024 0.16933,-0.0747 0,-0.0986 -0.0762,-0.17933 -0.16933,-0.17933 -0.0931,0 -0.16934,-0.1143 -0.16934,-0.254 0,-0.1397 0.0807,-0.254 0.17933,-0.254 0.0986,0 0.13223,-0.0762 0.0747,-0.16933 -0.19188,-0.31047 -0.40023,-0.1746 -0.45442,0.29633 -0.0667,0.57952 -0.39224,0.53044 -0.39224,-0.0591 0,-0.28249 -0.14681,-0.51822 -0.42334,-0.6797 l -0.42333,-0.24723 0.71967,0.053 0.71966,0.053 v -0.63947 c 0,-0.35171 -0.0709,-0.63948 -0.15751,-0.63948 -0.0945,0 -0.0992,-0.20322 -0.0118,-0.508 0.0918,-0.320265 0.0838,-0.507995 -0.0218,-0.507995 -0.0921,0 -0.12219,-0.0733 -0.0668,-0.16293 0.0554,-0.0896 -0.14968,-0.23513 -0.45568,-0.32339 l -0.55636,-0.16047 0.62501,-0.0153 c 0.34375,-0.008 0.67327,-0.0934 0.73225,-0.1888 0.059,-0.0954 0.0444,-0.16261 -0.0324,-0.14928 -0.36359,0.0632 -0.5719,-0.0336 -0.46046,-0.21397 0.0831,-0.13441 0.029,-0.16225 -0.16813,-0.0866 -0.17261,0.0662 -0.24857,0.0435 -0.18712,-0.0559 0.0569,-0.0921 -0.0534,-0.167394 -0.24521,-0.167394 -0.19175,0 -0.34866,-0.0776 -0.34866,-0.17256 0,-0.0995 0.17923,-0.12758 0.42334,-0.0663 0.26084,0.0655 0.42333,0.0342 0.42333,-0.0814 0,-0.10323 0.1143,-0.18769 0.254,-0.18769 0.1397,0 0.254,-0.0691 0.254,-0.15348 0,-0.0844 -0.14895,-0.11453 -0.331,-0.0669 -0.25139,0.0657 -0.3582,-0.0219 -0.44421,-0.36462 -0.0725,-0.28879 -0.19714,-0.41898 -0.34635,-0.36172 -0.13129,0.0504 -0.23311,-0.0168 -0.23311,-0.15392 0,-0.13386 0.10209,-0.2042 0.22688,-0.15631 0.38242,0.14675 0.67499,-0.35549 0.45093,-0.77413 -0.11149,-0.20832 -0.14312,-0.58662 -0.0752,-0.89983 l 0.11709,-0.5404 -0.33123,0.2967 c -0.18219,0.16319 -0.37695,0.25099 -0.43283,0.19512 -0.16507,-0.16508 0.0608,-0.57648 0.31653,-0.57648 0.12973,0 0.23692,-0.0953 0.2382,-0.21167 0.002,-0.11642 0.0483,-0.38312 0.10441,-0.59267 0.0751,-0.2801 0.0296,-0.381 -0.17165,-0.381 -0.15697,0 -0.27374,-0.13856 -0.27374,-0.32481 0,-0.60706 -0.16976,-0.81348 -0.60115,-0.73101 -0.2399,0.0459 -0.41485,-5.1e-4 -0.41485,-0.10977 0,-0.10399 -0.13335,-0.19529 -0.29634,-0.20289 -0.17957,-0.008 -0.0795,-0.10864 0.254,-0.25448 0.30269,-0.13237 0.55034,-0.35476 0.55034,-0.49419 0,-0.2833 -0.26452,-0.34115 -0.41876,-0.0916 -0.12223,0.19777 -0.59724,0.0381 -0.59724,-0.20079 0,-0.0997 0.10585,-0.0841 0.252,0.0372 0.39194,0.32529 0.48522,-0.15161 0.32331,-1.65306 l -0.14113,-1.30861 -0.10483,0.93133 c -0.0576,0.51224 -0.11725,0.84167 -0.13242,0.73209 -0.0152,-0.10959 -0.16095,-0.2341 -0.32393,-0.27669 l -0.29634,-0.0774 0.29634,-0.0196 c 0.23573,-0.0156 0.29633,-0.17656 0.29633,-0.78696 0,-0.52585 0.0799,-0.79799 0.254,-0.86478 0.33628,-0.12904 0.32554,-0.39991 -0.0159,-0.39991 -0.14842,0 -0.30971,0.1524 -0.35843,0.33867 -0.0487,0.18627 -0.19397,0.33867 -0.3228,0.33867 -0.27496,0 -0.3117,-0.27081 -0.058,-0.42759 0.34831,-0.21527 -0.33722,-1.43508 -0.80651,-1.43508 -0.11901,0 -0.21638,0.12954 -0.21638,0.28787 0,0.21804 -0.0476,0.24032 -0.19602,0.0918 -0.14847,-0.14848 -0.14388,-0.25885 0.0189,-0.45505 0.11823,-0.14246 0.16971,-0.37696 0.11439,-0.5211 -0.0749,-0.19518 -0.004,-0.24977 0.27738,-0.21383 0.20789,0.0266 0.37797,-0.0279 0.37797,-0.12107 0,-0.0931 -0.13335,-0.16328 -0.29633,-0.15588 -0.23389,0.0106 -0.29634,-0.12578 -0.29634,-0.6471 0,-0.63998 -0.2932,-1.14435 -0.66524,-1.14435 -0.25622,0 -0.22704,0.67302 0.0302,0.69737 0.11642,0.011 -0.0169,0.0702 -0.29633,0.13143 -0.2794,0.0613 -0.59526,0.0332 -0.70189,-0.0624 -0.21171,-0.18973 -0.1398,-0.42776 0.1292,-0.42776 0.0931,0 0.12225,0.0762 0.0647,0.16933 -0.0576,0.0931 -0.043,0.16874 0.0323,0.16801 0.17286,-0.002 0.5621,-0.82615 0.55494,-1.17544 -0.005,-0.22105 -0.041,-0.21571 -0.23033,0.0338 -0.12373,0.16299 -0.30546,0.29634 -0.40384,0.29634 -0.0984,0 -0.2129,0.0953 -0.25449,0.21166 -0.0416,0.11642 -0.1332,0.15815 -0.20359,0.0927 -0.0704,-0.0654 -0.005,-0.2423 0.14615,-0.39309 0.15078,-0.15079 0.27415,-0.45683 0.27415,-0.68008 0,-0.29126 0.0717,-0.37839 0.254,-0.30846 0.33433,0.12829 0.32131,-0.0256 -0.0376,-0.44483 -0.32895,-0.38418 -0.58693,-0.44626 -0.53576,-0.12893 0.0494,0.30658 -0.19612,0.80433 -0.3968,0.80433 -0.10309,0 -0.0917,-0.0967 0.0284,-0.24144 0.11022,-0.13279 0.18256,-0.34234 0.16078,-0.46566 -0.0218,-0.12333 0.0645,-0.43924 0.19172,-0.70203 0.27042,-0.55852 0.0218,-0.84791 -0.63249,-0.73616 -0.2063,0.0352 -0.41006,-0.0201 -0.45278,-0.12299 -0.0503,-0.12102 -0.14109,-0.0974 -0.25732,0.0669 -0.14116,0.1996 -0.18019,0.20444 -0.18222,0.0226 -0.002,-0.14765 -0.12517,-0.19936 -0.34126,-0.14285 -0.18627,0.0487 -0.33867,0.0292 -0.33867,-0.0433 0,-0.0725 0.3048,-0.18058 0.67734,-0.24015 0.37253,-0.0596 0.67733,-0.19226 0.67733,-0.29487 0,-0.12515 -0.25083,-0.14894 -0.762,-0.0723 -0.59958,0.0899 -0.762,0.0629 -0.762,-0.12662 0,-0.16988 0.13728,-0.2166 0.46567,-0.15849 0.34599,0.0612 0.41886,0.0323 0.28356,-0.11245 -0.10016,-0.10717 -0.42184,-0.2252 -0.71484,-0.26228 -1.08055,-0.13675 -1.49797,-0.40935 -1.05039,-0.68597 0.26291,-0.16249 0.19958,-0.42334 -0.10279,-0.42334 -0.17231,0 -0.23637,-0.0932 -0.17465,-0.254 0.061,-0.15881 -0.002,-0.254 -0.1664,-0.254 -0.26428,0 -0.89461,-0.63279 -0.90519,-0.90874 -0.003,-0.0807 0.18667,-0.10997 0.42174,-0.065 0.23505,0.0449 0.46816,0.0157 0.51799,-0.0649 0.0847,-0.13699 -0.65537,-0.22373 -1.32637,-0.15548 -0.16298,0.0166 -0.29633,-0.0508 -0.29633,-0.14983 0,-0.099 -0.0843,-0.17998 -0.18745,-0.17998 -0.10309,0 -0.15,0.0976 -0.10423,0.21686 0.0458,0.11927 -0.10038,0.30349 -0.32478,0.40939 -0.30829,0.14549 -0.40205,0.14422 -0.38371,-0.005 0.0914,-0.74434 -0.23229,-1.10669 -0.40355,-0.45173 -0.0487,0.18627 -0.21545,0.33867 -0.37052,0.33867 -0.25632,0 -0.25776,-0.0242 -0.0159,-0.2661 0.37513,-0.37513 0.33178,-0.65313 -0.15934,-1.02195 -0.23397,-0.17571 -0.39512,-0.39842 -0.35809,-0.49491 0.0935,-0.24376 -0.52277,-0.97232 -0.64931,-0.76757 -0.0564,0.0914 -0.008,0.31812 0.10836,0.50394 0.11604,0.18581 0.15101,0.39783 0.0777,0.47114 -0.0733,0.0733 -0.20755,5.1e-4 -0.29833,-0.16163 -0.0908,-0.16221 -0.34937,-0.29493 -0.57465,-0.29493 -0.30479,0 -0.38317,-0.0689 -0.30631,-0.26917 0.0902,-0.23512 -0.021,-0.25365 -0.87887,-0.14646 -0.86106,0.10758 -0.96934,0.0892 -0.87801,-0.14874 0.1085,-0.28278 -0.0925,-0.52241 -0.28049,-0.3344 -0.21802,0.21801 -0.94048,0.18924 -1.13506,-0.0452 -0.11016,-0.13275 -0.34786,-0.24136 -0.52823,-0.24136 -0.18036,0 -0.28071,-0.0764 -0.22298,-0.16979 0.0631,-0.10214 0.21891,-0.11147 0.39099,-0.0234 0.73997,0.37863 1.21739,0.38236 1.21739,0.009 v -0.35947 l -1.26175,0.0946 c -1.05998,0.0795 -1.24662,0.0552 -1.16722,-0.15176 0.052,-0.13549 0.0102,-0.24634 -0.0929,-0.24634 -0.10311,0 -0.18745,-0.1651 -0.18745,-0.36689 0,-0.20178 -0.0501,-0.31675 -0.11143,-0.25546 -0.0613,0.0613 -0.23273,0.0181 -0.381,-0.0959 -0.18616,-0.14314 -0.17446,-0.0955 0.0378,0.15399 0.40903,0.48074 0.13479,0.62461 -0.69621,0.36525 -0.50897,-0.15885 -0.64406,-0.27751 -0.58276,-0.5119 0.0439,-0.16782 0.007,-0.30513 -0.0809,-0.30513 -0.22508,0 -0.56182,1.16185 -0.37093,1.27983 0.24269,0.14999 0.1786,0.41351 -0.10056,0.41351 -0.1397,0 -0.254,-0.10717 -0.254,-0.23815 0,-0.15765 -0.11877,-0.20709 -0.35139,-0.14626 -0.27464,0.0718 -0.33936,0.0221 -0.29633,-0.22752 0.0562,-0.32601 -0.049,-0.35111 -0.58979,-0.14073 -0.24956,0.0971 -0.29654,0.0446 -0.254,-0.28378 0.0287,-0.2216 -0.024,-0.42031 -0.11716,-0.44159 -0.0931,-0.0213 -0.16933,0.22903 -0.16933,0.55625 0,0.33736 -0.10646,0.66085 -0.24593,0.74718 -0.27046,0.16745 -0.51607,0.0798 -0.51607,-0.18406 0,-0.0931 0.0682,-0.12717 0.15158,-0.0756 0.0834,0.0515 0.19529,-0.0202 0.24869,-0.15934 0.059,-0.15369 0,-0.25302 -0.15159,-0.25302 -0.13677,0 -0.24868,-0.14307 -0.24868,-0.31794 0,-0.17486 -0.12392,-0.42078 -0.27539,-0.54648 -0.24953,-0.2071 -0.26396,-0.16087 -0.15357,0.49252 l 0.12184,0.72106 -0.69469,-0.0476 c -0.48792,-0.0334 -0.66958,-0.1132 -0.61038,-0.26804 0.0464,-0.12126 0.009,-0.17391 -0.0831,-0.11701 -0.0921,0.0569 -0.16738,0.19466 -0.16738,0.30613 0,0.34911 -0.94783,0.6724 -1.34625,0.45918 -0.32062,-0.17159 -0.41824,-0.1165 -0.36713,0.20716 0.011,0.0699 -0.17496,0.127 -0.41328,0.127 -0.24577,0 -0.38803,0.0733 -0.32867,0.16933 0.0575,0.0931 0.0151,0.16934 -0.0944,0.16934 -0.11568,0 -0.16201,-0.14181 -0.11056,-0.3385 0.12209,-0.46686 -0.16021,-0.59457 -0.38515,-0.17425 -0.10109,0.18888 -0.26663,0.34341 -0.36789,0.34341 -0.13037,0 -0.12905,-0.0663 0.004,-0.22724 0.10373,-0.12499 0.13846,-0.27739 0.0772,-0.33867 -0.21651,-0.2165 -0.39365,-0.1071 -0.39365,0.2431 0,0.21211 -0.13604,0.39009 -0.33867,0.44308 -0.18626,0.0487 -0.33866,0.18533 -0.33866,0.3036 0,0.11826 -0.2286,0.24858 -0.508,0.28959 -0.2794,0.041 -0.50683,0.0306 -0.50541,-0.0231 0.006,-0.22927 0.27544,-0.48784 0.59007,-0.56645 0.20185,-0.0504 0.0877,-0.0925 -0.28248,-0.10425 -0.34163,-0.0108 -0.73519,-0.0634 -0.87457,-0.11689 -0.20884,-0.0801 -0.23656,0.0285 -0.15758,0.61737 l 0.0959,0.71461 -0.54079,-0.31944 c -0.44956,-0.26557 -0.56523,-0.27985 -0.68585,-0.0847 -0.0798,0.12911 -0.26707,0.18794 -0.41617,0.13072 -0.31958,-0.12264 -0.35617,0.0712 -0.0679,0.35948 0.15804,0.15804 0.11948,0.2032 -0.17353,0.2032 -0.24603,0 -0.43257,-0.14687 -0.53767,-0.42333 -0.16607,-0.43679 -0.41243,-0.54564 -0.58886,-0.26018 -0.0555,0.0897 0.0544,0.31833 0.24401,0.508 0.26616,0.26615 0.28689,0.34484 0.0908,0.34484 -0.1397,0 -0.254,0.0734 -0.254,0.1632 0,0.0909 -0.42303,0.1425 -0.9555,0.11646 -0.80528,-0.0394 -0.9682,0.002 -1.03623,0.262 -0.0444,0.16979 -0.24308,0.34631 -0.44151,0.39226 -0.19842,0.046 -0.66556,0.15176 -1.0381,0.23514 l -0.67733,0.15159 0.55033,0.017 c 0.62398,0.0193 0.74878,0.30394 0.16934,0.38624 -0.2283,0.0324 -0.381,0.17212 -0.381,0.34855 0,0.16194 -0.0762,0.27624 -0.16934,0.254 -0.0931,-0.0222 -0.1474,-0.21189 -0.12059,-0.42144 0.0268,-0.20955 -0.0303,-0.381 -0.127,-0.381 -0.0967,0 -0.17574,-0.1188 -0.17574,-0.264 0,-0.14519 -0.0764,-0.21677 -0.16979,-0.15905 -0.11291,0.0698 -0.11091,0.21494 0.006,0.43332 0.21436,0.40054 0.0259,0.43606 -0.25749,0.0485 -0.1156,-0.1581 -0.29307,-0.22522 -0.40789,-0.15425 -0.15465,0.0956 -0.15626,0.1822 -0.007,0.36238 0.10808,0.13022 0.14444,0.37109 0.0808,0.53526 -0.10832,0.27944 -0.13115,0.27751 -0.35761,-0.0302 -0.2105,-0.28601 -0.24191,-0.29151 -0.24191,-0.0423 0,0.1575 -0.11943,0.28636 -0.26542,0.28636 -0.19107,0 -0.23825,0.1067 -0.16843,0.381 0.0906,0.35609 0.0854,0.35886 -0.0805,0.0423 -0.22367,-0.42679 -1.09155,-0.88111 -0.94284,-0.49356 0.0629,0.16394 -0.0585,0.30917 -0.35157,0.42061 -0.3534,0.13436 -0.4037,0.21345 -0.23876,0.37558 0.16423,0.16143 0.27557,0.12386 0.52039,-0.17563 0.41209,-0.50411 0.54514,-0.48065 0.48008,0.0847 -0.046,0.40005 -0.12011,0.45788 -0.52573,0.41037 -0.43129,-0.0505 -0.46267,-0.0175 -0.36265,0.381 0.0798,0.31773 0.0432,0.4363 -0.13462,0.4363 -0.36843,0 -0.48947,-0.19573 -0.27838,-0.45009 0.14366,-0.1731 0.12746,-0.22725 -0.068,-0.22725 -0.28131,0 -0.45629,0.33403 -0.47292,0.90285 l -0.0107,0.36715 -0.15716,-0.39187 c -0.17809,-0.44402 -0.49871,-0.34895 -0.49871,0.14787 0,0.18077 -0.0762,0.32867 -0.16933,0.32867 -0.0931,0 -0.16933,-0.24316 -0.16933,-0.54036 0,-0.50673 -0.0149,-0.52002 -0.23898,-0.21354 -0.13146,0.17976 -0.2117,0.37098 -0.17836,0.42494 0.0334,0.054 -0.202,0.19309 -0.523,0.30916 -0.49888,0.1804 -0.83715,0.6969 -0.45666,0.69726 0.0698,6e-5 0.13845,0.19799 0.15245,0.43984 0.0218,0.37614 -0.0326,0.42863 -0.37589,0.36301 -0.24396,-0.0466 -0.35975,-0.01 -0.2953,0.0948 0.0667,0.10791 -0.0451,0.1311 -0.30144,0.0625 -0.22412,-0.06 -0.46225,-0.11007 -0.52917,-0.11134 -0.0669,-0.001 -0.0808,-0.10891 -0.0308,-0.23919 0.05,-0.13028 0.0103,-0.28663 -0.0881,-0.34746 -0.1089,-0.0673 -0.13946,-0.008 -0.0781,0.15221 0.0663,0.17269 0.004,0.26279 -0.18125,0.26279 -0.15516,0 -0.2384,0.0707 -0.185,0.15714 0.0534,0.0864 -0.0564,0.20587 -0.24401,0.26541 -0.44944,0.14265 -0.43273,0.3552 0.0399,0.50699 0.34094,0.10949 0.34795,0.13105 0.0667,0.20496 -0.17288,0.0454 -0.39767,-6.8e-4 -0.49954,-0.10262 -0.29699,-0.29698 -0.48815,-0.21414 -0.36938,0.16007 0.096,0.30233 0.0552,0.33165 -0.32726,0.23565 -0.43112,-0.10821 -0.61654,0.13469 -0.26751,0.3504 0.0931,0.0576 0.16849,0.27161 0.16746,0.47566 -0.002,0.33572 -0.0431,0.31871 -0.43528,-0.17889 -0.42064,-0.53373 -1.08684,-0.55629 -1.08684,-0.0368 0,0.298 0.50771,0.16899 0.52327,-0.13296 0.008,-0.16299 0.0892,-0.0394 0.17953,0.27465 0.1938,0.67372 0.0559,1.27295 -0.19875,0.8636 -0.12664,-0.2036 -0.21678,-0.211 -0.49207,-0.0404 -0.28183,0.17466 -0.36498,0.1608 -0.50801,-0.0847 -0.14578,-0.25022 -0.17177,-0.2263 -0.17616,0.16217 -0.003,0.25062 -0.078,0.50071 -0.16708,0.55576 -0.0891,0.055 -0.11903,0.21194 -0.0666,0.34866 0.0525,0.13672 0.011,0.24858 -0.0921,0.24858 -0.1031,0 -0.18745,-0.1143 -0.18745,-0.254 0,-0.34708 -0.20801,-0.3187 -0.54449,0.0743 -0.19744,0.2306 -0.22123,0.34875 -0.08,0.39709 0.11061,0.0378 -0.008,0.0365 -0.26455,-0.003 -0.34178,-0.0528 -0.46566,-6.8e-4 -0.46566,0.19557 0,0.14751 -0.15188,0.27695 -0.33867,0.28863 -0.18627,0.0116 -0.43392,0.0307 -0.55033,0.0423 -0.11642,0.0117 -0.23497,0.26099 -0.26344,0.55412 l -0.0518,0.53295 -0.6679,-0.0896 c -0.59653,-0.0801 -0.66765,-0.0512 -0.66765,0.27136 0,0.19853 0.0762,0.36097 0.16933,0.36097 0.0931,0 0.16934,-0.0807 0.16934,-0.17933 0,-0.0986 0.0799,-0.12995 0.17756,-0.0696 0.25556,0.15794 -0.13982,0.59144 -0.43583,0.47785 -0.33455,-0.12838 -0.68948,0.11194 -0.41544,0.2813 0.30913,0.19106 0.0198,0.53602 -0.3509,0.41837 -0.24169,-0.0767 -0.34506,0.004 -0.42744,0.33178 -0.11459,0.45656 -0.31478,0.55569 -0.50397,0.24955 -0.20828,-0.33699 -0.78046,0.83228 -0.58552,1.19651 0.11462,0.2142 0.11529,0.35592 0.002,0.42594 -0.0934,0.0577 -0.16979,-0.008 -0.16979,-0.14495 0,-0.13743 -0.0953,-0.2848 -0.21167,-0.32749 -0.16933,-0.0621 -0.16933,-0.12248 0,-0.30198 0.11642,-0.1234 0.2105,-0.34247 0.20908,-0.48683 -0.002,-0.16765 -0.0475,-0.19542 -0.127,-0.0769 -0.0684,0.10208 -0.35301,0.24315 -0.63241,0.31351 l -0.508,0.12791 0.381,0.25748 c 0.47909,0.32378 0.4881,0.55484 0.0216,0.55484 -0.30544,0 -0.32669,0.0394 -0.14154,0.2625 0.17995,0.21684 0.16884,0.3115 -0.0639,0.54428 -0.26282,0.26283 -0.28179,0.24553 -0.28179,-0.25718 0,-0.43591 -0.0567,-0.52116 -0.29633,-0.4458 l -0.29634,0.0932 0.29634,-0.24415 c 0.4088,-0.33683 0.40247,-0.69931 -0.008,-0.44313 -0.36917,0.23055 -0.44767,0.82897 -0.10875,0.82897 0.13393,0 0.24349,0.0762 0.24349,0.16933 0,0.0931 -0.1143,0.16934 -0.254,0.16934 -0.14111,0 -0.254,0.15052 -0.254,0.33866 0,0.18627 -0.0844,0.33867 -0.18746,0.33867 -0.10309,0 -0.14359,0.1143 -0.09,0.254 0.0594,0.15472 0,0.254 -0.15121,0.254 -0.13678,0 -0.24869,-0.1524 -0.24869,-0.33867 0,-0.18626 0.0686,-0.31961 0.1524,-0.29633 0.0838,0.0233 0.16002,-0.0148 0.16934,-0.0847 0.0222,-0.16666 -0.0125,-0.17002 -0.36407,-0.0352 -0.41402,0.15888 -0.37462,0.9012 0.0682,1.28528 0.20053,0.17391 0.28606,0.3162 0.19008,0.3162 -0.096,0 -0.27016,-0.11524 -0.38705,-0.25609 -0.2237,-0.26954 -0.76532,-0.0261 -0.58631,0.26358 0.0471,0.0761 0,0.19157 -0.10547,0.2565 -0.10507,0.0649 -0.25753,0.0131 -0.33883,-0.11529 -0.0813,-0.12835 -0.1514,-0.15717 -0.15579,-0.064 -0.0223,0.47269 -0.45708,0.75216 -0.95021,0.61073 -0.41665,-0.1195 -0.49842,-0.0942 -0.49842,0.15425 0,0.17158 0.0914,0.26212 0.21629,0.21421 0.11896,-0.0456 0.26596,0.0464 0.32666,0.20464 0.17106,0.44577 -0.74124,1.15322 -1.33421,1.03463 -0.25666,-0.0513 -0.46665,-0.0273 -0.46665,0.0534 0,0.0807 -0.20557,0.19834 -0.45682,0.2614 -0.35418,0.0889 -0.40207,0.14852 -0.21309,0.26531 0.14544,0.0899 0.3092,0.0852 0.40602,-0.0116 0.26169,-0.26169 0.34724,-0.19142 0.36947,0.3035 0.0115,0.25605 -0.0139,0.3703 -0.0564,0.25388 -0.0426,-0.11642 -0.23156,-0.21167 -0.42003,-0.21167 -0.23171,0 -0.31179,0.0805 -0.24729,0.24858 0.14799,0.38566 -0.25229,0.5182 -0.50817,0.16826 -0.20422,-0.27928 -0.22831,-0.28201 -0.22831,-0.0259 0,0.1575 -0.10582,0.28637 -0.23516,0.28637 -0.25078,0 -0.53184,1.07259 -0.35573,1.35755 0.0566,0.0915 -0.007,0.166454 -0.14138,0.166454 -0.13433,0 -0.28409,-0.152404 -0.33279,-0.338674 -0.0487,-0.18627 -0.17704,-0.33867 -0.28517,-0.33867 -0.11954,0 -0.15447,0.13275 -0.0891,0.33867 0.0738,0.232444 0.0304,0.338674 -0.13817,0.338674 -0.27212,0 -0.49471,0.80182 -0.26245,0.94537 0.24484,0.15132 0.1641,0.40929 -0.1281,0.40929 -0.22501,0 -0.2366,0.046 -0.0639,0.254 0.2511,0.302565 0.11465,0.328475 -0.3154,0.0599 -0.45558,-0.2845 -1.11701,-0.0516 -1.38131,0.486375 l -0.23078,0.46973 -0.064,-0.381 c -0.0352,-0.20955 -0.13639,-0.381 -0.22482,-0.381 -0.0884,0 -0.11296,0.1905 -0.0545,0.42333 0.0803,0.32013 0.0399,0.42334 -0.16611,0.42334 -0.34673,0 -0.35548,0.59863 -0.0182,1.24529 0.24815,0.47582 0.21278,0.78671 -0.0895,0.78671 -0.0847,0 -0.11245,-0.10835 -0.0616,-0.24077 0.1212,-0.31586 -0.22105,-0.94457 -0.5142,-0.94457 -0.22539,0 -0.43549,0.34983 -0.43549,0.72505 0,0.13189 0.0617,0.12768 0.2032,-0.0139 0.29037,-0.29038 0.40155,-0.25231 0.40155,0.13748 0,0.18738 -0.0789,0.31162 -0.17538,0.2761 -0.0965,-0.0355 -0.30994,0.0527 -0.4744,0.196 -0.2711,0.23625 -0.32358,0.23023 -0.56186,-0.0644 l -0.26286,-0.32501 0.0751,0.42333 c 0.137,0.77224 -0.0926,1.2899 -0.42481,0.9577 -0.42516,-0.42515 -0.51559,-0.34447 -0.44487,0.39697 l 0.0646,0.67733 -0.51249,0.006 c -0.28186,0.003 -0.72891,0.18316 -0.99346,0.39958 l -0.48099,0.39349 0.38794,0.10144 0.38794,0.10145 -0.39448,0.34213 c -0.21695,0.18817 -0.46084,0.30111 -0.54195,0.25098 -0.0811,-0.0501 -0.14747,-0.0186 -0.14747,0.0701 0,0.0887 0.1143,0.20507 0.254,0.25868 0.1397,0.0536 0.254,0.22349 0.254,0.37752 0,0.22973 -0.0456,0.24217 -0.254,0.0692 -0.21295,-0.17674 -0.254,-0.14937 -0.254,0.16933 0,0.3176 -0.0415,0.34568 -0.25236,0.17069 -0.16523,-0.13713 -0.21544,-0.35653 -0.14544,-0.63548 0.0802,-0.31974 0.0482,-0.40569 -0.12864,-0.34448 -0.12956,0.0448 -0.22952,0.24528 -0.22212,0.44541 0.0152,0.41107 -0.55918,0.51237 -0.91091,0.16066 -0.11782,-0.11783 -0.2032,-0.13074 -0.2032,-0.0307 0,0.0949 0.2308,0.28178 0.5129,0.41538 l 0.51289,0.2429 -0.34356,0.29416 -0.34356,0.29417 v -0.35112 c 0,-0.19969 -0.0885,-0.32163 -0.20515,-0.28274 -0.11282,0.0376 -0.20807,0.29021 -0.21166,0.56133 -0.005,0.34334 -0.10255,0.51169 -0.32291,0.55467 -0.19669,0.0384 -0.273,-0.008 -0.20167,-0.12388 0.0631,-0.10209 0.0332,-0.18562 -0.0665,-0.18562 -0.11708,0 -0.15401,0.35866 -0.10436,1.01362 0.0637,0.84026 0.0381,0.97782 -0.14969,0.80434 -0.1246,-0.11511 -0.19519,-0.26117 -0.15687,-0.32459 0.0383,-0.0634 -0.008,-0.16316 -0.10245,-0.22166 -0.0947,-0.0585 -0.17209,-0.0312 -0.17209,0.0606 0,0.0918 -0.13335,0.20176 -0.29634,0.24435 l -0.29633,0.0774 0.29633,0.0196 c 0.33315,0.0221 0.39397,0.27799 0.10807,0.45468 -0.10355,0.064 -0.24687,0.0215 -0.3185,-0.0944 -0.0968,-0.15668 -0.21141,-0.16357 -0.44673,-0.0268 -0.17408,0.10113 -0.22125,0.1862 -0.10484,0.18903 0.2878,0.007 0.25798,0.69168 -0.0477,1.09585 -0.13674,0.18078 -0.25031,0.25698 -0.25238,0.16933 -0.002,-0.0876 -0.15279,0.0311 -0.33491,0.26397 l -0.33113,0.42333 -0.004,-0.47977 c -0.002,-0.31127 -0.0781,-0.45252 -0.21543,-0.40217 -0.11642,0.0427 -0.18042,0.18238 -0.14224,0.31044 0.28585,0.95859 0.22394,1.3335 -0.22023,1.3335 -0.37609,0 -0.44186,0.0741 -0.44186,0.49801 0,0.52908 -0.25195,0.83277 -0.3955,0.47671 -0.0865,-0.21443 -0.17715,0.27574 -0.12513,0.67628 0.0151,0.11642 -0.14732,0.21284 -0.36096,0.21426 -0.31289,0.002 -0.33902,0.0345 -0.13441,0.16674 0.19222,0.12423 0.11775,0.16478 -0.30633,0.16674 -0.30818,0.001 -0.51648,-0.0683 -0.4629,-0.15504 0.0536,-0.0867 0.02,-0.20549 -0.0747,-0.26399 -0.0947,-0.0585 -0.17209,0.008 -0.17209,0.14764 0,0.1397 0.0793,0.30301 0.17622,0.36291 0.0969,0.0599 0.12988,0.2549 0.0733,0.43333 -0.0621,0.19558 -0.023,0.32441 0.0985,0.32441 0.15161,0 0.14929,0.0629 -0.009,0.254 -0.11594,0.1397 -0.31577,0.254 -0.44406,0.254 -0.1283,0 -0.23327,0.1096 -0.23327,0.24355 0,0.15978 -0.15787,0.23258 -0.45903,0.21166 -0.34065,-0.0237 -0.47402,0.0555 -0.51711,0.30679 -0.0408,0.23773 -0.0136,0.27387 0.0916,0.12127 0.18141,-0.26354 0.71523,-0.0917 0.71523,0.2302 0,0.13538 -0.10486,0.19033 -0.254,0.1331 -0.16083,-0.0617 -0.254,0.002 -0.254,0.17465 0,0.35753 -0.27269,0.34962 -0.41144,-0.0119 -0.1016,-0.2648 -0.12868,-0.26439 -0.3991,0.006 -0.25097,0.25102 -0.25649,0.31097 -0.041,0.44419 0.137,0.0847 0.19778,0.20532 0.13507,0.26803 -0.0627,0.0627 -0.24761,-0.0195 -0.41087,-0.1828 -0.21468,-0.21468 -0.31636,-0.23827 -0.36736,-0.0852 -0.0388,0.11638 0.0247,0.27046 0.14112,0.34241 0.11641,0.0719 0.15854,0.21678 0.0936,0.32185 -0.0649,0.10506 -0.18373,0.15044 -0.264,0.10083 -0.0803,-0.0496 -0.19686,-0.008 -0.25911,0.0929 -0.0754,0.12194 -0.22106,0.0855 -0.43607,-0.10909 -0.39209,-0.35484 -0.61342,-0.21597 -0.24421,0.15324 0.14414,0.14413 0.25964,0.40085 0.25668,0.57049 l -0.005,0.30842 -0.22494,-0.29633 c -0.34103,-0.44922 -0.48169,-0.35624 -0.3523,0.23285 0.0808,0.36792 0.0591,0.49388 -0.0712,0.41334 -0.2073,-0.12811 -0.23641,0.12748 -0.0807,0.70848 0.0562,0.20955 0.20302,0.381 0.32636,0.381 0.12334,0 0.27135,0.0762 0.32891,0.16933 0.0576,0.0931 -0.0594,0.16933 -0.25986,0.16933 -0.2221,0 -0.39912,-0.13231 -0.45308,-0.33866 -0.0487,-0.18627 -0.14964,-0.33867 -0.22429,-0.33867 -0.0747,0 -0.25713,-0.0466 -0.40551,-0.10352 -0.20288,-0.0778 -0.24193,-0.031 -0.1575,0.18903 0.0984,0.25643 0.0655,0.26752 -0.26658,0.0898 -0.40613,-0.21735 -0.62352,-0.14246 -0.44147,0.15209 0.0614,0.0993 0.30275,0.1806 0.53636,0.1806 0.3617,0 0.40767,0.0566 0.30964,0.381 -0.1726,0.57128 -0.41571,0.76438 -0.41571,0.3302 0,-0.21825 -0.10519,-0.37253 -0.254,-0.37253 -0.18765,0 -0.254,0.19644 -0.254,0.752 0,0.41361 -0.0878,0.80624 -0.19499,0.87252 -0.13526,0.0836 -0.10014,0.18986 0.11464,0.34691 0.39987,0.29239 0.16729,0.53499 -0.25816,0.26929 -0.20417,-0.1275 -0.36085,-0.14073 -0.42564,-0.0359 -0.0564,0.0912 -0.02,0.16587 0.0807,0.16587 0.10602,0 0.0657,0.17947 -0.0958,0.42589 -0.15349,0.23425 -0.40288,0.4057 -0.55423,0.381 -0.18876,-0.0308 -0.27097,0.0748 -0.26174,0.33611 0.007,0.21079 -0.0871,0.381 -0.21167,0.381 -0.36386,0 -0.25796,0.33695 0.15589,0.49601 l 0.381,0.14644 -0.46094,0.18079 c -0.29722,0.11656 -0.49684,0.34831 -0.56205,0.65243 -0.16067,0.74942 -0.39387,1.23366 -0.59414,1.23366 -0.10179,0 -0.0653,-0.11974 0.081,-0.2661 0.34817,-0.34817 0.34442,-0.91923 -0.006,-0.91923 -0.17802,0 -0.23674,0.0922 -0.16982,0.26658 0.12532,0.32655 -0.32727,0.81727 -0.59892,0.64938 -0.11844,-0.0732 -0.15126,-0.0479 -0.0824,0.0635 0.0629,0.1018 -0.0206,0.27173 -0.1855,0.37762 -0.26342,0.1691 -0.26489,0.18172 -0.0122,0.1037 0.20766,-0.0641 0.25968,-0.0158 0.187,0.17363 -0.0554,0.14436 0.006,0.33098 0.13562,0.41471 0.20006,0.12888 0.19736,0.1774 -0.0177,0.31615 -0.16373,0.10566 -0.27407,0.10566 -0.31044,0 -0.0892,-0.25905 -0.28365,-0.19521 -0.76551,0.25134 -0.49117,0.45521 -0.55167,0.60076 -0.24971,0.60076 0.10908,0 0.32974,0.11893 0.49037,0.26429 0.33079,0.29937 -0.19858,1.09037 -0.72973,1.09037 -0.3011,0 -0.68148,0.4064 -0.52595,0.56194 0.0591,0.0591 -0.0178,0.15548 -0.1708,0.2142 -0.15303,0.0587 -0.27823,0.20808 -0.27823,0.33191 0,0.12683 -0.24034,0.25561 -0.55034,0.29488 -0.50014,0.0633 -0.51558,0.0816 -0.16933,0.19981 0.39436,0.13466 0.52539,0.42926 0.19094,0.42926 -0.13388,0 -0.12956,0.0729 0.0146,0.24659 0.31005,0.37358 0.045,0.63552 -0.51795,0.51187 -0.72727,-0.15973 -0.60373,0.19164 0.14312,0.40705 l 0.635,0.18313 -0.64875,-0.0732 c -0.54929,-0.062 -0.61778,-0.0359 -0.44676,0.17015 0.33686,0.40591 -0.13954,1.60245 -0.63803,1.60245 -0.082,0 -0.29697,0.11825 -0.47777,0.26277 l -0.32869,0.26277 0.36095,-0.0985 c 0.23632,-0.0645 0.39526,-0.009 0.46035,0.16057 0.0774,0.20182 -0.0303,0.25904 -0.48795,0.25904 -0.32304,0 -0.58735,0.0738 -0.58735,0.16402 0,0.0902 0.10659,0.12312 0.23686,0.0731 0.13028,-0.05 0.28224,-0.0175 0.3377,0.0722 0.0555,0.0897 -0.0191,0.20916 -0.16569,0.26541 -0.19607,0.0752 -0.23795,0.23233 -0.15845,0.59429 0.062,0.28228 0.0317,0.53924 -0.0712,0.6028 -0.099,0.0612 -0.17924,-0.0168 -0.17924,-0.17394 0,-0.23009 -0.0473,-0.24547 -0.24659,-0.0801 -0.13562,0.11255 -0.31071,0.16501 -0.38907,0.11658 -0.0784,-0.0484 -0.24389,-0.0254 -0.3678,0.0512 -0.323,0.19963 -0.0457,0.5491 0.33886,0.42704 0.46827,-0.14862 0.71824,0.0593 0.42448,0.35303 -0.13882,0.1388 -0.36874,0.19436 -0.53707,0.12976 -0.19912,-0.0764 -0.25514,-0.0495 -0.17313,0.0832 0.0792,0.12817 0.0301,0.16121 -0.14156,0.0953 -0.18388,-0.0706 -0.26279,0.002 -0.26279,0.24008 0,0.26162 -0.0886,0.32448 -0.381,0.27024 -0.28057,-0.052 -0.25825,-0.0218 0.0847,0.11462 0.63276,0.25183 0.45334,0.99831 -0.24191,1.00637 -0.12307,0.002 -0.33806,0.0764 -0.47776,0.16674 -0.18894,0.12211 -0.0913,0.16481 0.381,0.16674 0.48578,0.002 0.635,-0.0651 0.635,-0.28527 0,-0.21441 0.049,-0.23892 0.19182,-0.0961 0.25764,0.25764 0.0415,0.78337 -0.27249,0.66287 -0.13594,-0.0522 -0.29344,-0.02 -0.35001,0.0716 -0.0566,0.0915 -0.23047,0.14535 -0.38642,0.1196 -0.20378,-0.0336 -0.26938,0.0562 -0.23314,0.31918 0.0277,0.2013 -0.0294,0.41534 -0.127,0.47565 -0.0976,0.0603 -0.17743,0.25758 -0.17743,0.43834 0,0.18078 -0.0855,0.32867 -0.19006,0.32867 -0.1337,0 -0.12925,0.0733 0.0149,0.24706 0.27966,0.33698 0.0616,1.33462 -0.26432,1.20953 -0.15171,-0.0582 -0.23792,0.0227 -0.23792,0.22325 0,0.1956 0.11203,0.30565 0.29625,0.29102 0.18759,-0.0149 0.31613,0.11623 0.35045,0.35748 0.0365,0.2563 -0.0328,0.381 -0.21158,0.381 -0.14618,0 -0.26578,-0.0807 -0.26578,-0.17933 0,-0.0986 -0.0754,-0.13275 -0.16746,-0.0759 -0.10289,0.0636 -0.0646,0.26042 0.0993,0.51056 0.1467,0.22388 0.22044,0.48192 0.1639,0.57343 -0.0566,0.0915 0.0149,0.23229 0.15894,0.31286 0.20681,0.11572 0.13645,0.19565 -0.33511,0.38068 -0.32827,0.1288 -0.59804,0.35331 -0.59946,0.49891 -0.002,0.2131 -0.031,0.21993 -0.14817,0.035 -0.10629,-0.16774 -0.1782,-0.17696 -0.26648,-0.0341 -0.091,0.14725 -0.18101,0.14574 -0.36393,-0.006 -0.31353,-0.26022 -0.41556,-0.14893 -0.29303,0.31963 0.10353,0.3959 0.65918,0.51797 0.77509,0.17028 0.0527,-0.15822 0.0957,-0.15822 0.19343,0 0.0691,0.11183 0.0469,0.20332 -0.0494,0.20332 -0.37741,0 -0.92576,1.56578 -0.62531,1.78547 0.14984,0.10956 0.27242,0.36225 0.27242,0.56152 0,0.43172 -0.33272,0.49409 -0.35202,0.066 -0.008,-0.17702 -0.0478,-0.2111 -0.0988,-0.0847 -0.047,0.11642 -0.21242,0.21768 -0.36763,0.22503 -0.176,0.008 -0.20255,0.0455 -0.0706,0.0988 0.24294,0.098 0.29176,0.90385 0.0548,0.90385 -0.0863,0 -0.19176,-0.13335 -0.23435,-0.29633 l -0.0774,-0.29633 -0.0196,0.29633 -0.0195,0.29638 H 45.756435 -38.825567 Z m 75.580832,-19.34633 c 0.11943,-0.19407 0.75695,-4.04837 0.87528,-5.29167 0.0576,-0.60537 0.23268,-2.09127 0.38905,-3.302 0.48612,-3.763913 0.41313,-18.929697 -0.10794,-22.4288813 -0.56382,-3.786237 -0.99388,-5.530782 -1.4524,-5.891687 -0.20738,-0.163224 -0.4673,-0.555791 -0.5776,-0.872372 -0.25259,-0.724953 -0.25621,-0.703036 0.0958,-0.581179 0.20363,0.0705 0.15153,-0.04828 -0.16653,-0.379664 L 35.347855,0.87523371 32.762725,2.1708347 C 23.524485,6.8008007 6.9317945,19.30447 1.4025749,25.802748 l -0.32701,0.38432 0.41,0.29143 c 1.39305,0.9902 6.1386996,3.495333 8.9646901,4.732283 4.44968,1.94766 4.25824,1.87096 9.73666,3.90099 2.90094,1.07495 4.96539,1.78553 7.95867,2.73938 1.61916,0.51596 3.41378,0.97251 5.41867,1.37849 1.15323,0.23352 1.98986,0.49623 2.19663,0.68974 0.34059,0.31876 0.85334,0.41445 0.9942,0.18556 z m -3.44483,-2.10439 c -2.35267,-0.55185 -5.47813,-1.46788 -8.89,-2.60554 -2.13856,-0.71309 -2.82419,-0.95813 -5.842,-2.08792 -3.00037,-1.12325 -6.39757,-2.55365 -6.07237,-2.55678 0.0596,-5.1e-4 0.70726,0.11012 1.43933,0.24598 3.2846,0.60955 14.43072,1.06795 19.01129,0.78185 1.62154,-0.10128 2.96333,-0.16466 2.98177,-0.14084 0.0762,0.0984 -0.43742,4.46566 -0.64728,5.50401 -0.26846,1.32836 -0.1675,1.28456 -1.98074,0.85924 z m -12.02267,-8.41801 -0.59267,-0.10614 1.18534,-0.309633 c 0.65193,-0.1703 1.29963,-0.35312 1.43933,-0.40627 0.1397,-0.0532 0.34925,-0.0813 0.46567,-0.0625 0.11641,0.0188 0.21166,-0.0394 0.21166,-0.12917 0,-0.0898 0.24765,-0.21626 0.55034,-0.28098 0.30268,-0.0647 0.62653,-0.17277 0.71966,-0.2401 0.0931,-0.0673 0.89324,-0.37742 1.778,-0.68908 0.88477,-0.31166 1.64677,-0.61773 1.69334,-0.68015 0.0466,-0.0624 0.38946,-0.21056 0.762,-0.3292 0.37253,-0.11865 0.86783,-0.31705 1.10066,-0.4409 0.23284,-0.12385 0.80434,-0.38712 1.27,-0.58504 0.46567,-0.19791 1.21018,-0.5455 1.65447,-0.77241 0.85924,-0.43884 1.34339,-0.32029 1.18383,0.28987 -0.0406,0.15522 0.021,0.34083 0.13693,0.41246 0.16249,0.10042 0.18488,-0.0584 0.0978,-0.69372 -0.0655,-0.47801 -0.0503,-0.75573 0.0363,-0.66146 0.31299,0.3409 0.94236,2.90971 1.30517,5.32716 l 0.089,0.592673 -0.32416,-0.40628 c -0.20195,-0.253103 -0.34996,-0.328893 -0.39258,-0.201023 -0.14004,0.420103 -12.33815,0.735803 -14.36999,0.371903 z M 7.2185345,28.404498 c -2.5113296,-1.26353 -4.3882996,-2.36766 -4.3882996,-2.58143 0,-0.73353 9.3551301,-8.778297 15.5512201,-13.37297 0.99299,-0.736351 1.89213,-1.411076 1.99808,-1.499392 0.33064,-0.275605 5.51569,-3.7461633 5.88836,-3.9413103 0.19452,-0.101857 -0.72787,0.911695 -2.04975,2.252337 -2.43437,2.4689223 -3.62764,3.8216383 -5.85502,6.6373773 -1.29722,1.639878 -3.06622,3.975932 -3.55167,4.690156 -0.15826,0.232833 -0.55968,0.804333 -0.89205,1.27 -1.25403,1.756932 -2.90013,4.290472 -3.81748,5.875552 l -0.9504302,1.642223 z m 8.7774505,0.89141 c -0.0543,-0.0543 -1.00043,-0.20775 -2.10255,-0.34105 -2.7953,-0.33808 -3.43453,-0.71309 -2.42548,-1.42292 0.0662,-0.0466 0.25579,-0.35137 0.42133,-0.67734 0.16553,-0.32596 0.50935,-0.89746 0.76405,-1.27 0.25469,-0.37253 0.86112,-1.28524 1.34763,-2.02823 1.38029,-2.107998 4.16113,-5.915104 4.85157,-6.642038 0.10636,-0.111982 0.25277,-0.150082 0.32535,-0.08467 0.0726,0.06542 0.0754,0.02081 0.006,-0.09911 -0.13436,-0.23297 1.05105,-1.681412 1.30788,-1.598088 0.0789,0.02559 0.10332,-0.01835 0.0543,-0.09764 -0.19934,-0.322525 4.56651,-5.5150933 4.93284,-5.3745193 0.14036,0.05386 0.18259,0.01319 0.10934,-0.105334 -0.0656,-0.106196 0.0151,-0.291372 0.17938,-0.411504 0.16429,-0.120132 0.63377,-0.53247 1.0433,-0.916308 0.67363,-0.631375 0.76969,-0.672787 1.00796,-0.434523 0.14485,0.144851 0.21645,0.339278 0.1591,0.432057 -0.0602,0.09744 0.007,0.126099 0.15854,0.06785 0.14454,-0.05546 0.2628,-0.01919 0.2628,0.08061 0,0.0998 0.22196,0.506972 0.49324,0.90483 0.27128,0.397858 0.46262,0.7729233 0.4252,0.8334793 -0.0374,0.06056 0.0454,0.204263 0.18409,0.319354 0.13867,0.115089 0.25213,0.314223 0.25213,0.442519 0,0.128297 0.0679,0.233266 0.15098,0.233266 0.083,0 0.1995,0.193343 0.25881,0.429651 0.0674,0.268561 0.20865,0.411411 0.37671,0.381 0.1518,-0.02746 0.33167,0.117257 0.41307,0.332349 0.0793,0.20955 0.10609,0.381 0.0595,0.381 -0.0466,0 -0.15358,-0.17145 -0.23781,-0.381 -0.10367,-0.257925 -0.15661,-0.291954 -0.16388,-0.105345 -0.01,0.246094 0.0745,0.498808 0.58465,1.756345 0.13707,0.337929 0.1901,0.498792 0.23012,0.698067 0.0116,0.05797 0.13547,0.01055 0.27517,-0.1054 0.28891,-0.239778 0.35024,0.0054 0.0711,0.284441 -0.13089,0.130898 -0.0788,0.411309 0.18353,0.987069 0.20151,0.442326 0.40805,1.061089 0.459,1.375026 0.051,0.313939 0.15647,0.570797 0.23449,0.570797 0.078,0 0.098,0.1143 0.0444,0.254 -0.0537,0.139919 -0.005,0.254 0.10833,0.254 0.19756,0 0.17523,-0.253155 -0.11198,-1.27 -0.0635,-0.224925 -0.0391,-0.281796 0.0728,-0.169333 0.0926,0.09313 0.41406,0.931333 0.7143,1.862667 0.30023,0.931333 0.61503,1.827293 0.69955,1.991023 0.0845,0.163728 0.25877,0.735228 0.3872,1.27 0.12843,0.53477 0.2869,1.12471 0.35215,1.310977 0.0961,0.274415 0.0524,0.258355 -0.23054,-0.08467 -0.19204,-0.232833 -0.34137,-0.499533 -0.33183,-0.592667 0.0358,-0.349417 -0.24525,-1.27 -0.38769,-1.27 -0.21601,0 -0.18118,0.407259 0.055,0.643467 0.11176,0.11176 0.14622,0.2032 0.0766,0.2032 -0.0696,0 -0.31636,-0.20955 -0.54826,-0.465667 -0.86181,-0.951778 -1.68439,-1.879102 -1.86306,-2.100292 -0.10132,-0.125422 -0.84219,-0.829223 -1.64639,-1.564003 -0.8042,-0.73478 -1.41438,-1.413304 -1.35596,-1.50783 0.0594,-0.09609 0.0227,-0.120247 -0.0832,-0.05479 -0.10527,0.06506 -0.70922,-0.318274 -1.35939,-0.862836 -1.24064,-1.039121 -3.71467,-2.588582 -4.1332,-2.588582 -0.36758,0 -2.49829,4.29208 -2.49829,5.032526 0,0.119244 -0.0807,0.216807 -0.17933,0.216807 -0.0986,0 -0.13415,0.0731 -0.0789,0.162445 0.0552,0.08935 0.0272,0.298896 -0.0624,0.465667 -0.1821,0.339266 -0.96469,2.904674 -1.12562,3.689888 -0.0573,0.2794 -0.17116,0.6604 -0.25311,0.846667 -0.17589,0.399775 -0.88408,3.868685 -1.11489,5.461005 l -0.0798,0.550333 h -0.81077 c -0.44592,0 -0.85518,-0.0444 -0.90946,-0.0987 z m 20.40174,-5.67301 c -0.0217,-0.147601 -0.18215,-0.719101 -0.3565,-1.269998 -0.17436,-0.550899 -0.52332,-1.687434 -0.77547,-2.525634 -0.44551,-1.480989 -0.75812,-2.391583 -1.4824,-4.318 -1.33346,-3.546729 -3.56147,-7.6778173 -4.89029,-9.0673953 -0.27143,-0.283833 -0.4935,-0.566222 -0.4935,-0.627531 0,-0.152844 2.04374,-1.333493 4.35742,-2.517243 l 1.9212,-0.982941 0.15976,0.42021 c 0.53926,1.41835 1.26584,5.908667 1.52968,9.4534993 0.14365,1.930041 0.1712,12.393733 0.0301,11.435033 z m 7.91917,13.391703 v -1.524 h 4.40267 4.40267 v 1.524 1.524 h 0.68683 0.68684 l -0.0518,-3.55166 -0.0518,-3.55167 -0.38571,-0.38533 -0.3857,-0.38534 h -4.92062 -4.92063 l -0.40867,0.47511 -0.40867,0.47511 v 3.46189 3.46189 h 0.67733 0.67733 z m 0.0321,-3.85233 0.0526,-0.635 4.22147,-0.0454 c 4.54766,-0.0489 4.49154,-0.0595 4.4966,0.84969 l 0.003,0.46567 h -4.41289 -4.41289 z m 22.58159,4.96069 0.41564,-0.41563 v -3.5637 -3.56369 h -0.67734 -0.67733 v 2.92946 c 0,2.0527 -0.0608,2.99028 -0.2032,3.13267 -0.28862,0.28861 -8.11032,0.28861 -8.39893,0 -0.14239,-0.14239 -0.2032,-1.07997 -0.2032,-3.13267 v -2.92946 h -0.67734 -0.67733 v 3.56369 3.5637 l 0.41564,0.41563 0.41563,0.41564 h 4.92606 4.92606 z m 8.23377,-2.62774 -0.0558,-3.04365 2.59585,-0.0468 2.59587,-0.0468 v -0.84667 -0.84667 l -5.79967,-0.0446 -5.79967,-0.0446 v 0.93356 0.93356 h 2.54 2.54 v 3.048 3.048 l 0.71967,1.3e-4 0.71967,1.4e-4 z m 17.32028,2.9382 c 0.62349,-0.23926 0.76959,-0.95863 0.76959,-3.78948 0,-4.25955 0.28203,-4.064 -5.86144,-4.064 -6.03566,0 -5.82068,-0.14698 -5.82068,3.97933 0,2.44977 0.17152,3.33637 0.71971,3.72034 0.38183,0.26744 9.53668,0.40559 10.19282,0.15381 z m -9.30956,-1.96915 c -0.0522,-0.20955 -0.0727,-1.1811 -0.0456,-2.159 l 0.0494,-1.778 4.25517,-0.0452 4.25517,-0.0452 0.10285,0.38386 c 0.17006,0.6347 0.12034,3.34543 -0.0678,3.697 l -0.17529,0.32753 h -4.13948 -4.13948 z m 12.78848,-0.70582 c 0,-3.63126 -0.21917,-3.31585 2.304122,-3.31585 h 2.098543 v 3.048 3.048 h 0.67733 0.67733 v -3.05306 -3.05306 l 2.159,0.0474 2.159,0.0474 0.0462,3.00567 0.0462,3.00567 h 0.67343 0.67343 v -3.46189 -3.46189 l -0.40868,-0.47511 -0.40867,-0.47511 h -5.61732 -5.617315 l -0.40868,0.47511 -0.40867,0.47511 v 3.46189 3.46189 h 0.67734 0.67733 z m 14.223995,1.25615 v -1.524 h 4.40266 4.40267 v 1.524 1.524 h 0.67733 0.67734 v -3.46189 -3.46189 l -0.40867,-0.47511 -0.40868,-0.47511 h -4.92062 -4.92062 l -0.38571,0.38534 -0.3857,0.38533 -0.0518,3.55167 -0.0518,3.55166 h 0.68684 0.68684 z m 0.0611,-3.47171 c -0.0537,-0.13991 -0.0495,-0.44601 0.009,-0.68023 l 0.10688,-0.42586 4.27172,0.0452 4.27171,0.0452 0.0526,0.635 0.0525,0.635 h -4.33353 c -3.69869,0 -4.34784,-0.0373 -4.43115,-0.25438 z m 17.88824,1.95212 v -3.04359 l 2.58233,-0.0467 2.58234,-0.0467 0.0556,-0.48613 c 0.0305,-0.26737 0.01,-0.66843 -0.0461,-0.89124 l -0.10169,-0.40512 -5.7112,0.0446 -5.71121,0.0446 v 0.84666 0.84667 l 2.49767,0.0469 2.49766,0.0469 v 3.04347 3.04348 h 0.67734 0.67733 z m 7.95867,-0.93574 v -3.97933 h -0.67138 -0.67135 l -0.0483,3.97947 -0.0483,3.97947 0.71967,-1.4e-4 0.71967,-1.4e-4 z m 12.86933,3.13573 v -0.8436 l -3.9921,-0.0454 -3.9921,-0.0454 3.1031,-1.76176 c 1.70671,-0.96897 3.50098,-1.99767 3.98729,-2.286 l 0.88421,-0.52424 0.005,-0.80433 0.005,-0.80434 h -5.75733 -5.75733 v 0.92821 0.92822 l 3.937,0.0455 3.937,0.0455 -3.89467,2.22729 -3.89467,2.22729 -0.0516,0.77838 -0.0516,0.77837 h 5.76661 5.76661 v -0.8436 z m 2.794,-0.72272 v -1.48167 l 4.40267,-3.3e-4 4.40266,-3.4e-4 -0.0543,1.52438 -0.0543,1.52439 h 0.74512 0.74513 l -0.0183,-3.429 c -0.026,-4.87961 0.41876,-4.52977 -5.75818,-4.52977 -6.19366,0 -5.84979,-0.28077 -5.84979,4.77633 v 3.20181 l 0.71966,-0.0521 0.71967,-0.0521 z m 0.0202,-3.31169 c -0.0465,-0.0752 -0.0568,-0.28472 -0.0229,-0.46566 0.0338,-0.18095 0.0673,-0.42555 0.0745,-0.54357 0.0102,-0.16847 0.93159,-0.20485 4.28862,-0.16933 l 4.27567,0.0452 0.0526,0.635 0.0525,0.635 h -4.31822 c -2.37504,0 -4.35624,-0.0615 -4.40271,-0.13668 z m 23.09382,4.03386 v -0.84414 l -5.03767,-0.0448 -5.03766,-0.0449 v -2.11667 -2.11667 l 4.99533,-0.0847 4.99533,-0.0847 0.0512,-0.889 0.0512,-0.889 h -5.27121 -5.27119 l -0.49498,0.49498 -0.49498,0.49497 v 3.06873 3.06872 l 0.41563,0.41563 0.41565,0.41564 h 5.34168 5.34171 z m 2.70933,-3.13518 v -3.97933 h -0.67733 -0.67733 v 3.97933 3.97933 h 0.67733 0.67733 z m 12.47889,3.57106 0.47511,-0.40827 0.0556,-2.68206 c 0.0963,-4.64227 0.33064,-4.46006 -5.73663,-4.46006 -6.10378,0 -5.91643,-0.12601 -5.91643,3.97933 0,4.16842 -0.27886,3.97933 5.86833,3.97933 h 4.77889 z m -9.48733,-1.39795 c -0.0621,-0.0621 -0.11289,-1.05269 -0.11289,-2.20133 v -2.08845 h 4.29825 4.29824 l 0.10211,0.381 c 0.16947,0.63239 0.11916,3.34337 -0.0686,3.69413 l -0.1753,0.32754 h -4.11447 c -2.26297,0 -4.1653,-0.0508 -4.22738,-0.11289 z m 12.75644,-1.24178 v -3.048 h 4.29988 c 3.76472,0 4.31269,0.0333 4.40267,0.26785 0.0565,0.14732 0.10279,1.51892 0.10279,3.048 v 2.78015 h 0.67733 0.67733 v -3.31041 c 0,-4.97646 0.45512,-4.64825 -6.44569,-4.64825 h -5.06897 v 3.97933 3.97933 h 0.67733 0.67733 z M 64.013385,21.986298 l -0.0309,-1.989699 -8.4358,-0.08467 -8.43581,-0.08467 -0.0462,-2.797988 -0.0462,-2.797986 -1.84689,-1.816347 c -1.01578,-0.998991 -1.89032,-1.816346 -1.94341,-1.816346 -0.0531,0 -0.0965,2.5599 -0.0965,5.688667 v 5.688669 l 0.96054,0.999998 0.96053,1.000002 9.4958,3e-5 9.4958,3e-5 z m 23.3142,-0.04236 v -2.032 l -8.509,1.5e-4 -8.509,1.53e-4 0.0847,-1.143153 0.0847,-1.14315 0.67734,-0.02179 c 0.37253,-0.01199 3.66818,-0.03103 7.32366,-0.04233 l 6.64634,-0.02055 v -2.040402 -2.040403 l -7.32367,0.02796 -7.32367,0.02796 -0.0847,-0.955365 -0.0847,-0.955365 -1.98091,1.994144 -1.98092,1.994142 -0.0355,3.065919 c -0.0392,3.386145 -0.10989,3.121692 1.20558,4.508056 l 0.7597,0.800644 9.525,0.004 9.525,0.004 z m 22.241555,1.028571 0.9571,-1.00343 V 15.593938 9.2187967 l -0.9571,-1.003431 -0.95711,-1.003428 h -8.49388 -8.493875 l -0.4522,0.471996 -0.4522,0.471996 1.52439,1.517325 1.52438,1.5173233 6.389135,3.39e-4 6.38913,3.39e-4 0.0276,3.29759 0.0276,3.297593 1.05164,0.985357 c 0.5784,0.541948 1.00626,1.03074 0.95079,1.086206 -0.12214,0.12214 -14.671925,0.07459 -14.871255,-0.0486 -0.0772,-0.04772 -0.14044,-1.288271 -0.14044,-2.75676 v -2.669981 l -1.94733,-2.009714 c -1.76262,-1.819075 -2.06836,-2.05743 -1.95018,-1.520339 0.0205,0.09313 0.0122,2.112434 -0.0185,4.487334 -0.0307,2.3749 -0.0517,4.838022 -0.0467,5.473605 l 0.009,1.155607 1.00318,0.993898 1.00317,0.993896 8.483225,0.01 8.48322,0.01 0.95711,-1.003426 z m 15.89873,-5.367736 0.0444,-6.371165 4.14151,-0.02117 4.1415,-0.02117 0.0163,-1.9896673 0.0163,-1.989666 h -4.13603 -4.13602 l -2.09613,2.100691 -2.096,2.1006903 v 6.28131 6.281312 h 2.02996 2.02997 z m 31.79437,4.441948 c 0,-1.600325 -0.0455,-1.946681 -0.26697,-2.031664 -0.14684,-0.05635 -3.97256,-0.09041 -8.5016,-0.0757 l -8.23461,0.02675 -0.006,-1.170084 -0.006,-1.170085 7.40734,-0.04411 7.40733,-0.04411 v -1.929752 -1.92975 l -1.56633,-0.113654 c -0.86149,-0.06251 -4.17622,-0.08867 -7.36609,-0.05814 l -5.79977,0.05552 1.1e-4,-0.889 c 1.1e-4,-1.163586 0.0505,-1.187261 -2.15628,1.013238 l -1.90759,1.902238 0.003,3.135429 0.003,3.135428 0.97084,1.056455 0.97084,1.056458 9.525,0.002 9.52499,0.002 V 22.04697 Z m 23.1657,-0.06045 -0.0677,-1.989667 -8.41636,-0.04392 -8.41635,-0.04391 v -2.806805 -2.806805 l -1.98967,-1.97528 -1.98967,-1.975282 -0.0446,5.750462 -0.0446,5.750462 1.05574,1.065205 1.05573,1.065207 h 9.46256 9.46257 z m 6.46764,-1.227667 v -3.217333 h 6.43466 6.43467 v 3.217333 3.217334 h 1.98967 1.98966 l -0.0389,-8.424334 -0.0389,-8.4243333 -1.95079,-0.04771 -1.9508,-0.04771 v 2.106671 2.1066713 l 1.01932,0.97909 c 0.56061,0.538499 0.99769,1.043959 0.97126,1.123242 -0.0264,0.07928 -3.35603,0.141857 -7.39914,0.13905 l -7.35106,-0.0051 -1.24603,1.274635 c -0.71136,0.7277 -1.19595,1.355628 -1.12935,1.463394 0.0661,0.106891 0.0405,0.141703 -0.0589,0.08026 -0.0966,-0.05967 -0.52238,0.238333 -0.94629,0.662237 l -0.77072,0.770731 -0.006,3.1216 -0.006,3.121606 h 2.02721 2.02721 V 20.7586 Z m -122.926765,-8.466666 -0.0206,-3.1326673 -0.96797,-0.969826 -0.96798,-0.969828 -9.398,-0.0026 -9.398,-0.0026 1.99777,1.9837 1.99778,1.9836973 5.35704,-0.04777 c 2.94637,-0.02628 5.83834,0.0038 6.42659,0.06677 l 1.06955,0.114538 -0.011,1.969938 c -0.006,1.083464 -0.006,2.029504 -3e-5,2.102311 0.006,0.0728 0.89393,0.110905 1.97317,0.08467 l 1.96226,-0.04771 z m 116.440395,0.07946 0.033,-3.0532023 -1.0147,-1.053131 -1.01467,-1.053131 h -9.34673 -9.34671 l 1.94662,1.946608 1.94661,1.9466073 6.25038,0.01661 c 3.4377,0.0091 6.33322,0.04837 6.43448,0.08719 0.12067,0.04626 0.17306,0.752311 0.15204,2.048875 -0.0398,2.454234 -0.20804,2.271154 2.03509,2.214526 l 1.89165,-0.04775 z m 6.48637,-3.6971733 v -1.631625 h -2.03615 -2.03615 l 0.0465,3.6237003 0.0465,3.623699 1.98967,-1.992074 1.98967,-1.992075 z m -99.568025,0.527375 3e-5,-1.989666 h -10.49869 -10.49866 v 1.991929 1.9919273 l 10.49863,-0.0023 10.49863,-0.0023 4e-5,-1.9896673 z m 33.019125,-0.05529 1.94643,-1.934376 h -4.70349 -4.70349 l 0.0231,1.905 c 0.0127,1.0477503 0.0888,1.9459953 0.16897,1.9960993 0.0802,0.05011 1.31045,0.06332 2.7339,0.02938 l 2.58809,-0.06173 z m 36.45545,1.9587393 0.4712,0.0015 -0.0479,-1.9050003 -0.0479,-1.905 -10.45634,-0.04362 -10.45633,-0.04363 v 1.920404 c 0,1.0562203 0.0317,1.9521523 0.0705,1.9909573 0.0388,0.03881 4.55363,0.05081 10.033,0.02667 5.47935,-0.02413 10.17451,-0.04318 10.43369,-0.04233 z"
       id="path17257"
       clip-path="url(#clipPath17365)" /></g></svg>
