<?xml version="1.0" encoding="UTF-8" standalone="no"?>
<!-- Created with Inkscape (http://www.inkscape.org/) -->

<svg
   width="202.10025mm"
   height="38.858017mm"
   viewBox="0 0 202.10025 38.858017"
   version="1.1"
   id="svg35"
   xml:space="preserve"
   xmlns="http://www.w3.org/2000/svg"
   xmlns:svg="http://www.w3.org/2000/svg"><defs
     id="defs32" /><g
     id="layer1"
     transform="translate(-0.41711036,-83.801633)"><path
       style="fill:#d76145;fill-opacity:1;stroke-width:0.244144"
       d="m 159.59887,105.56683 -1.02741,-1.04686 v -5.599984 -5.599959 l 1.82374,1.811573 1.82375,1.811573 0.0684,2.821051 0.0684,2.821066 8.28853,0.0643 c 6.25794,0.0486 8.3355,0.1383 8.48026,0.36621 0.10546,0.16604 0.19342,1.04347 0.19547,1.94986 l 0.004,1.64798 h -9.34871 -9.34871 z"
       id="path18887" /><path
       style="fill:#d76145;fill-opacity:1;stroke-width:0.244144"
       d="m 175.56558,97.682429 c -0.0815,-0.2124 -0.14819,-1.201185 -0.14819,-2.197293 v -1.811113 h -6.41489 -6.41488 l -1.81886,-1.831078 -1.81886,-1.83108 h 9.14004 9.14005 l 1.04685,1.027408 1.04685,1.027409 v 3.000965 3.000965 h -1.80495 c -1.42067,0 -1.83652,-0.08222 -1.95316,-0.386183 z"
       id="path18889" /><path
       style="fill:#d76145;fill-opacity:1;stroke-width:0.244144"
       d="m 182.00928,93.24066 v -3.47294 h 1.83108 1.83107 v 1.654083 1.654082 l -1.83107,1.818857 -1.83108,1.81886 z"
       id="path18891" /><path
       style="fill:#d76145;fill-opacity:1;stroke-width:0.244144"
       d="m 182.00928,103.53131 v -3.08236 l 1.9861,-2.01866 1.98611,-2.018655 7.27103,-0.08705 c 3.99906,-0.04788 7.35572,-0.171752 7.45924,-0.275278 0.10352,-0.103524 -0.27186,-0.657005 -0.83417,-1.229961 L 198.8552,93.777613 V 91.772667 89.76772 l 0.91554,0.0027 c 0.50355,0.0016 1.32754,0.07078 1.83108,0.154017 l 0.91554,0.151328 v 8.268949 8.268986 h -1.83108 -1.83108 v -3.29598 -3.29596 h -6.59188 -6.59189 v 3.29596 3.29597 h -1.83107 -1.83108 z"
       id="path18893" /><path
       style="fill:#d76145;fill-opacity:1;stroke-width:0.244144"
       d="m 135.37779,91.842945 v -1.83108 h 10.37612 10.37611 v 1.83108 1.831078 h -10.37611 -10.37612 z"
       id="path18895" /><path
       style="fill:#d76145;fill-opacity:1;stroke-width:0.244144"
       d="m 136.29333,105.52639 -0.91554,-1.0413 v -3.18539 -3.185365 l 1.77005,-1.641478 1.77004,-1.641477 0.0765,0.764114 0.0765,0.764111 h 7.43092 7.43092 v 1.803037 1.803035 l -7.44639,0.180143 -7.44639,0.18015 v 1.18753 1.18753 l 8.484,0.0642 8.484,0.0642 0.0713,1.89213 0.0713,1.89213 -9.47084,-0.023 -9.47085,-0.023 z"
       id="path18897" /><path
       style="fill:#d76145;fill-opacity:1;stroke-width:0.244144"
       d="m 120.48501,100.32155 v -6.292091 l 2.01929,-2.008798 2.01929,-2.008796 h 4.08431 4.08431 v 1.83108 1.831078 h -4.15045 -4.15044 l -0.002,4.455626 c -8e-4,2.450601 -0.072,5.362031 -0.15826,6.469841 l -0.15679,2.0142 h -1.7949 -1.79489 z"
       id="path18899" /><path
       style="fill:#d76145;fill-opacity:1;stroke-width:0.244144"
       d="m 112.10274,93.51126 c -0.0895,-0.08952 -0.16276,-0.913503 -0.16276,-1.831078 v -1.668317 h 4.44951 4.44952 l -1.81886,1.83108 -1.81886,1.831078 h -2.46789 c -1.35734,0 -2.54114,-0.07324 -2.63066,-0.162763 z"
       id="path18901" /><path
       style="fill:#d76145;fill-opacity:1;stroke-width:0.244144"
       d="m 89.773714,105.56683 -1.027406,-1.04686 v -5.422986 c 0,-3.207692 0.09341,-5.422961 0.228655,-5.422961 0.125762,0 0.922282,0.774052 1.770044,1.720112 l 1.541386,1.720115 0.122073,2.735513 0.122071,2.735527 7.507423,0.0646 c 8.35353,0.0718 8.39633,0.0624 6.53085,-1.43672 l -0.97657,-0.7848 V 97.051212 93.67406 h -6.416425 -6.416418 l -1.436799,-1.451948 c -2.245741,-2.269422 -2.450896,-2.21021 7.658097,-2.21021 h 8.465595 l 0.90405,0.925832 0.90405,0.925835 v 6.471008 6.471033 l -0.92583,0.90405 -0.92583,0.90406 h -8.300805 -8.300802 z"
       id="path18903" /><path
       style="fill:#d76145;fill-opacity:1;stroke-width:0.244144"
       d="m 66.606401,105.82021 c -1.180381,-1.24708 -1.297909,-1.6662 -1.297909,-4.62843 v -2.768407 l 1.953152,-1.941695 1.953151,-1.941695 v 0.90981 0.909812 h 7.324318 7.324315 v 1.831081 1.831074 h -3.623339 c -1.992839,0 -5.28878,0.0721 -7.324318,0.1602 l -3.700976,0.16018 v 1.18261 1.18261 h 8.422963 8.422965 v 1.95316 1.95317 h -9.351647 -9.351648 z"
       id="path18905" /><path
       style="fill:#d76145;fill-opacity:1;stroke-width:0.244144"
       d="m 65.308492,91.842945 v -1.83108 h 10.376117 10.376114 v 1.83108 1.831078 H 75.684609 65.308492 Z"
       id="path18907" /><path
       style="fill:#d76145;fill-opacity:1;stroke-width:0.244144"
       d="m 59.204896,96.023907 v -2.044703 l -0.76295,-0.15259 c -0.419623,-0.08393 -3.361256,-0.152591 -6.536959,-0.152591 h -5.77401 l -1.81886,-1.831078 -1.818859,-1.83108 h 9.140047 9.140044 l 1.046853,1.027408 1.04685,1.027409 v 3.000965 3.000965 h -1.831078 -1.831078 z"
       id="path18909" /><path
       style="fill:#d76145;fill-opacity:1;stroke-width:0.244144"
       d="m 43.14223,105.56683 -1.027409,-1.04686 0.01717,-4.995734 c 0.0094,-2.74764 0.09367,-5.189096 0.187179,-5.425459 0.141396,-0.357401 0.44272,-0.151897 1.789904,1.220722 l 1.619885,1.650468 0.170172,2.868689 0.170172,2.868704 h 8.39888 8.398878 v 1.95316 1.95317 H 53.518358 44.16965 Z"
       id="path18911" /><path
       style="fill:#d76145;fill-opacity:1;stroke-width:0.244144"
       d="m 12.769665,111.52935 c -1.30199,-0.22735 -2.434637,-0.48076 -2.516992,-0.56311 -0.157207,-0.15721 4.44657,-7.14784 6.266243,-9.51502 3.446265,-4.48315 7.469792,-8.997915 8.018875,-8.997915 0.133548,0 0.250747,-0.137332 0.260441,-0.305181 0.0097,-0.167849 0.397177,-0.62071 0.861072,-1.006359 l 0.843445,-0.70118 0.505536,0.579107 c 0.278046,0.31851 0.728896,1.018566 1.00189,1.555683 0.272995,0.537118 0.684609,1.251239 0.914699,1.586937 0.230092,0.335698 0.621975,1.187148 0.870852,1.892115 0.248878,0.704963 0.540666,1.281755 0.648417,1.281755 0.107754,0 0.195916,0.180983 0.195916,0.402185 0,0.670978 1.041511,3.305793 1.203278,3.044053 0.08302,-0.13433 0.403571,0.47959 0.712329,1.36428 0.846331,2.42502 0.370248,2.34864 -2.242383,-0.35974 -2.327764,-2.413071 -5.40722,-4.880464 -7.166394,-5.742035 -0.855775,-0.419123 -1.08649,-0.448804 -1.408882,-0.181242 -1.223689,1.015572 -3.839977,8.549617 -4.750454,13.679747 -0.407315,2.29504 -0.419185,2.3198 -1.131133,2.35934 -0.395724,0.022 -1.784764,-0.14606 -3.086755,-0.37342 z"
       id="path18913" /><path
       style="fill:#d76145;fill-opacity:1;stroke-width:0.244144"
       d="m 21.484663,111.82422 c 0.671396,-0.19468 1.440449,-0.45077 1.709007,-0.56908 0.268558,-0.11832 1.751733,-0.70763 3.295942,-1.30957 1.544212,-0.60195 3.665194,-1.48801 4.713295,-1.96902 2.211621,-1.015 2.366878,-1.04034 2.366878,-0.38628 0,0.52952 0.387099,0.66979 0.544584,0.19733 0.05334,-0.16003 0.293055,0.61651 0.532696,1.72564 0.239641,1.10913 0.384943,2.06738 0.32289,2.12943 -0.368385,0.36838 -3.722375,0.58051 -8.846558,0.55952 -5.537922,-0.0227 -5.792468,-0.0434 -4.638734,-0.37797 z"
       id="path18915" /><path
       style="fill:#ffffff;fill-opacity:1;stroke-width:0.244144"
       d="m 34.752761,122.4761 c -0.222176,-0.12945 -1.595485,-0.51702 -3.051799,-0.86126 -5.158076,-1.21926 -14.897193,-4.63812 -21.47975,-7.54035 -3.9569881,-1.74462 -9.6535971,-4.78137 -9.80145801,-5.22495 -0.1237094,-0.37113 4.11883621,-4.53112 7.57641911,-7.42899 4.2107359,-3.529087 10.5668109,-8.257334 15.1974969,-11.305334 4.391751,-2.890732 10.804095,-6.517182 11.147976,-6.304653 0.112596,0.06959 0.204716,0.302649 0.204716,0.517914 0,0.215268 0.285356,0.878316 0.634125,1.473446 0.348765,0.595127 0.843571,2.087954 1.09956,3.317391 1.078106,5.177777 1.204976,20.195746 0.234458,27.753096 -0.75021,5.84182 -0.843542,6.13868 -1.761744,5.60369 z m -0.591354,-1.88714 c 0.154884,-0.48801 0.861957,-5.33893 0.86877,-5.96027 0.0041,-0.37168 -0.402982,-0.39584 -4.573225,-0.27144 -4.790216,0.14288 -13.638107,-0.24862 -17.090074,-0.75621 -1.107803,-0.16289 -2.014187,-0.22388 -2.014187,-0.13551 0,0.40499 9.120004,3.8621 14.700244,5.5724 6.96857,2.13581 7.868246,2.3079 8.108472,1.55103 z m -0.640943,-8.33549 c 0.711409,-0.10123 1.349616,-0.0932 1.418236,0.0178 0.655796,1.0611 0.268192,-2.23063 -0.565563,-4.80309 -0.217607,-0.67141 -0.441603,-1.0834 -0.497774,-0.91555 -0.05617,0.16785 -0.264099,0.30518 -0.462068,0.30518 -0.197969,0 -1.699453,0.58795 -3.336632,1.30655 -3.431666,1.50626 -7.861066,3.1924 -9.427412,3.58874 -0.79092,0.20013 -0.986746,0.33191 -0.732431,0.49287 0.416083,0.26334 11.761649,0.26958 13.603644,0.007 z M 10.065239,109.0473 c 2.1409,-3.4094 4.302083,-6.46098 7.239201,-10.221704 1.721084,-2.203694 3.048042,-3.703183 7.201511,-8.137853 0.469308,-0.501081 0.796683,-0.967664 0.7275,-1.036847 -0.325139,-0.325138 -9.568474,6.405571 -15.220915,11.083404 -3.2640254,2.70124 -7.7739001,6.76677 -8.1066446,7.3079 -0.2377001,0.38657 -0.2152032,0.54229 0.122072,0.84498 0.4256603,0.38201 5.9702301,3.35971 6.0700404,3.25989 0.030688,-0.0307 0.9159436,-1.42558 1.9672352,-3.09977 z m 6.746403,2.75447 c 0.06638,-0.23499 0.192274,-0.92165 0.279767,-1.52591 0.244344,-1.68752 1.271229,-5.72501 2.111241,-8.30094 0.859631,-2.636075 2.559374,-6.103601 2.991918,-6.103601 1.399998,0 9.764376,7.344741 11.28555,9.909821 0.689658,1.16294 0.519459,-0.0987 -0.386173,-2.86252 -1.019807,-3.112307 -1.44939,-4.086875 -1.492146,-3.385142 -0.03593,0.589672 -0.678625,-1.275461 -0.699022,-2.028598 -0.01021,-0.377192 -0.117737,-0.624517 -0.238937,-0.549613 -0.279442,0.172706 -0.779992,-1.226191 -0.603409,-1.686359 0.07339,-0.191257 -0.0941,-0.485836 -0.376518,-0.66221 -0.279794,-0.174733 -0.508717,-0.39525 -0.508717,-0.490035 0,-0.246655 -1.742278,-3.191295 -2.103699,-3.555476 -0.166574,-0.167846 -0.434721,-0.305178 -0.595884,-0.305178 -0.161161,0 -1.281479,0.961316 -2.489597,2.136259 -1.939471,1.886212 -2.911029,2.968276 -5.206255,5.798418 -0.326699,0.402836 -0.876303,1.062027 -1.221343,1.464863 -0.960577,1.121491 -5.05904,6.901181 -6.243467,8.804601 -0.579637,0.9315 -1.137865,1.73026 -1.240505,1.77502 -0.2934398,0.12797 -0.2180899,0.72431 0.118562,0.93833 0.359313,0.22842 4.597061,0.99066 5.720929,1.02901 0.546098,0.0186 0.812882,-0.10046 0.897705,-0.40074 z m 18.47454,-18.312119 c -0.278286,-2.927927 -1.135991,-7.816583 -1.46472,-8.348477 -0.151685,-0.245433 -0.82346,0.0083 -2.870335,1.084149 -1.469763,0.772514 -2.925043,1.595217 -3.233951,1.828228 l -0.561653,0.423656 1.040911,1.316654 c 1.580306,1.998938 4.204613,7.621405 5.628574,12.058989 0.689411,2.14848 1.326012,4.07113 1.414668,4.27254 0.280763,0.63789 0.319064,-9.768119 0.04651,-12.635739 z"
       id="path18986" /><path
       style="fill:#5d5b5c;fill-opacity:1;stroke-width:0.244144"
       d="m 34.444021,102.84516 c -1.474089,-4.934525 -4.198006,-10.930415 -5.990153,-13.185538 -0.416039,-0.523518 -0.718772,-1.064839 -0.67274,-1.202936 0.04603,-0.138099 1.339847,-0.937371 2.875142,-1.776164 l 2.791444,-1.525074 0.280623,0.658164 c 0.770691,1.807557 1.363112,6.79881 1.483545,12.499144 0.06667,3.155564 0.08153,6.003084 0.03303,6.327794 -0.05854,0.39191 -0.327784,-0.21166 -0.800889,-1.79539 z"
       id="path23749" /><path
       style="fill:#5d5b5c;fill-opacity:1;stroke-width:0.244144"
       d="m 7.1412091,111.47704 c -0.2349886,-0.13687 -0.4289343,-0.161 -0.4309906,-0.0536 -0.00206,0.10738 -0.084455,0.0729 -0.1831078,-0.0767 -0.098653,-0.14959 -1.2055917,-0.84888 -2.459863,-1.55396 l -2.2804939,-1.28202 0.9377023,-0.97352 c 1.2264019,-1.27325 6.8457783,-6.12309 10.0930979,-8.710917 1.409932,-1.123587 2.755775,-2.260285 2.990763,-2.525993 0.234989,-0.265707 0.427252,-0.416224 0.427252,-0.334481 0,0.08174 1.016249,-0.601233 2.258331,-1.517726 2.679351,-1.977012 5.218668,-3.703826 5.446553,-3.703826 0.08977,0 -0.804635,1.016249 -1.987565,2.25833 -3.917294,4.113181 -9.906558,12.058903 -12.7900405,16.968053 -1.0555539,1.79709 -1.260411,1.94973 -2.0216384,1.50636 z"
       id="path23751" /><path
       style="fill:#5d5b5c;fill-opacity:1;stroke-width:0.244144"
       d="m 30.276162,120.05157 c -1.341517,-0.38678 -2.495098,-0.69459 -2.563514,-0.68404 -0.06841,0.0106 -0.289184,-0.052 -0.490603,-0.139 -1.178306,-0.50898 -3.262774,-1.11393 -3.44666,-1.00028 -0.118524,0.0733 -0.215499,0.0342 -0.215499,-0.0867 0,-0.12095 -0.466925,-0.35883 -1.037612,-0.52862 -1.368824,-0.40725 -7.135776,-2.55401 -8.504473,-3.16581 l -1.078174,-0.48193 2.441439,0.0475 c 1.342791,0.0261 2.514748,0.1491 2.604348,0.27333 0.09389,0.13017 3.690636,0.23362 8.489008,0.24415 l 8.326099,0.0183 -0.15194,1.34279 c -0.08357,0.73854 -0.278082,2.11185 -0.43226,3.0518 -0.256175,1.56181 -0.332888,1.71343 -0.89068,1.76042 -0.335698,0.0283 -1.707965,-0.26505 -3.049479,-0.65183 z"
       id="path23753" /><path
       style="fill:#5d5b5c;fill-opacity:1;stroke-width:0.156415"
       d="m 41.997457,117.76306 c 0,-3.22047 0.01511,-3.3897 0.342247,-3.83217 l 0.342244,-0.46291 h 4.948602 c 4.932715,0 4.949632,0.001 5.26887,0.35193 0.296376,0.32568 0.326785,0.61152 0.407684,3.83217 l 0.08742,3.48023 H 52.779482 52.16444 v -1.48594 -1.48594 h -4.45783 -4.457832 v 1.48594 1.48594 h -0.62566 -0.625661 z m 10.166983,-1.69509 c 0,-0.30032 -0.111517,-0.62093 -0.258419,-0.74297 -0.321924,-0.26742 -3.601704,-0.3746 -6.584743,-0.21517 l -2.0725,0.11076 v 0.68784 0.68785 h 4.457832 4.45783 z"
       id="path23755" /><path
       style="fill:#5d5b5c;fill-opacity:1;stroke-width:0.156415"
       d="m 55.243798,120.69361 -0.420301,-0.4387 v -3.47167 -3.47168 h 0.61618 0.61618 l 0.04858,2.95923 c 0.02672,1.62757 0.107241,3.01771 0.17893,3.0892 0.170264,0.16977 8.328292,0.16977 8.498557,0 0.07169,-0.0715 0.152206,-1.46163 0.178929,-3.0892 l 0.04858,-2.95923 h 0.61618 0.616181 v 3.49008 3.49007 l -0.438701,0.4203 -0.4387,0.4203 H 60.51425 55.664099 Z"
       id="path23757" /><path
       style="fill:#5d5b5c;fill-opacity:1;stroke-width:0.156415"
       d="m 72.811234,118.08222 v -3.05009 h -2.580849 -2.580849 v -0.86029 -0.86028 l 3.32382,5.3e-4 c 1.828102,2.6e-4 4.432414,0.0465 5.787361,0.10269 l 2.463538,0.10218 v 0.75759 0.75758 l -2.619954,-1.6e-4 -2.619955,-1.6e-4 0.05106,3.05026 0.05107,3.05025 h -0.637622 -0.63762 z"
       id="path23759" /><path
       style="fill:#5d5b5c;fill-opacity:1;stroke-width:0.156415"
       d="m 82.155497,121.01668 c -1.361665,-0.0854 -1.432943,-0.25449 -1.497401,-3.55298 -0.03133,-1.60336 0.01275,-2.83468 0.11059,-3.08885 0.338365,-0.87901 0.809628,-0.97568 5.050801,-1.03607 4.390268,-0.0625 5.405636,0.0608 5.923814,0.7196 0.307795,0.39129 0.322416,0.57321 0.276871,3.44481 -0.04711,2.97018 -0.05558,3.03777 -0.417349,3.33041 -0.344638,0.27879 -0.641921,0.29674 -4.457829,0.26914 -2.248715,-0.0163 -4.493985,-0.055 -4.989497,-0.0861 z m 8.597606,-1.87866 c 0.149935,-0.55355 0.158833,-3.47381 0.01167,-3.83217 -0.101124,-0.24626 -0.391488,-0.27364 -2.893679,-0.27291 -1.529702,5.2e-4 -3.46755,0.0463 -4.306324,0.10179 l -1.525048,0.10099 v 2.06195 c 0,1.13407 0.04692,2.10886 0.104277,2.16622 0.05735,0.0573 1.991649,0.10427 4.298434,0.10427 h 4.19416 z"
       id="path23761" /><path
       style="fill:#5d5b5c;fill-opacity:1;stroke-width:0.156415"
       d="m 93.619388,117.73029 c 0.0049,-3.37298 0.0082,-3.40571 0.383534,-3.83217 l 0.378593,-0.43014 h 5.627095 5.62709 l 0.32418,0.41213 c 0.30552,0.3884 0.32419,0.60905 0.32419,3.83217 v 3.42003 h -0.52332 -0.52331 l -0.10171,-1.99429 c -0.0559,-1.09686 -0.102,-2.42464 -0.10235,-2.95063 l -5.3e-4,-0.95633 -0.7257,-0.0995 c -0.39913,-0.0547 -1.38454,-0.0995 -2.18981,-0.0995 h -1.46411 v 3.05009 3.05009 h -0.62566 -0.625661 v -3.05009 -3.05009 H 97.44672 c -2.706732,0 -2.580849,-0.16403 -2.580849,3.36292 v 2.73726 h -0.62566 -0.62566 z"
       id="path23763" /><path
       style="fill:#5d5b5c;fill-opacity:1;stroke-width:0.156415"
       d="m 107.8741,117.70353 c 0.0516,-3.37989 0.0577,-3.43455 0.43153,-3.83218 l 0.3792,-0.40337 h 4.85214 4.85215 l 0.4387,0.4203 0.4387,0.4203 v 3.41187 3.41186 h -0.62566 -0.62566 v -1.48594 -1.48594 h -4.45783 -4.45783 v 1.48594 1.48594 h -0.63888 -0.63888 z m 10.11099,-1.77202 -0.0481,-0.66476 -1.17311,-0.0969 c -0.64521,-0.0533 -2.5971,-0.10607 -4.33754,-0.11731 l -3.16442,-0.0204 -0.095,0.37866 c -0.18289,0.72869 -0.0351,0.94436 0.71614,1.04469 0.38635,0.0516 2.3782,0.10439 4.42632,0.11731 l 3.72385,0.0235 z"
       id="path23765" /><path
       style="fill:#5d5b5c;fill-opacity:1;stroke-width:0.156415"
       d="m 125.83596,118.08222 v -3.05009 h -2.50264 -2.50265 v -0.75766 -0.75765 l 2.3711,-0.10263 c 1.3041,-0.0564 3.8305,-0.10263 5.61421,-0.10263 3.60613,0 3.433,-0.0557 3.433,1.10391 v 0.60909 l -2.61996,0.0429 -2.61995,0.0429 -0.0425,3.01099 -0.0425,3.01099 h -0.54408 -0.54407 z"
       id="path23767" /><path
       style="fill:#5d5b5c;fill-opacity:1;stroke-width:0.156415"
       d="m 133.65671,119.59303 c 0,-0.8466 0.0462,-2.60627 0.10263,-3.91038 l 0.10263,-2.37109 h 0.52303 0.52303 v 3.91038 3.91037 h -0.62566 -0.62566 z"
       id="path23769" /><path
       style="fill:#5d5b5c;fill-opacity:1;stroke-width:0.156415"
       d="m 136.47218,120.4471 v -0.68522 l 3.94888,-2.24756 3.94889,-2.24757 -1.09431,-0.0979 c -0.60187,-0.0538 -2.37886,-0.10663 -3.94888,-0.11732 l -2.85458,-0.0194 v -0.86028 -0.86028 h 5.70916 5.70915 l -0.002,0.74297 -0.002,0.74297 -3.98561,2.26802 c -2.19208,1.24741 -3.98628,2.32081 -3.98709,2.38533 -8e-4,0.0645 1.79337,0.11731 3.98709,0.11731 h 3.98859 v 0.78208 0.78207 h -5.70915 -5.70915 z"
       id="path23771" /><path
       style="fill:#5d5b5c;fill-opacity:1;stroke-width:0.156415"
       d="m 149.32414,117.8867 c 0.0785,-4.78264 -0.28216,-4.49693 5.67617,-4.49693 4.76865,0 5.20307,0.065 5.55587,0.83175 0.12307,0.26747 0.22389,1.59615 0.2781,3.66518 l 0.085,3.24561 h -0.75014 -0.75015 l 0.10445,-1.48594 0.10446,-1.48594 h -4.46099 -4.46099 v 1.48594 1.48594 h -0.71754 -0.71753 z m 10.14107,-1.9707 v -0.68028 l -1.52505,-0.10099 c -1.91749,-0.12697 -5.87626,-0.12973 -6.63286,-0.005 -0.45985,0.076 -0.58727,0.17522 -0.6509,0.50663 -0.1688,0.87912 -0.0731,0.89666 5.09395,0.93323 l 3.71486,0.0263 z"
       id="path23773" /><path
       style="fill:#5d5b5c;fill-opacity:1;stroke-width:0.156415"
       d="m 162.77719,120.7703 c -0.32578,-0.34678 -0.3401,-0.4937 -0.3401,-3.49008 v -3.12806 l 0.4387,-0.4203 0.4387,-0.4203 h 5.19225 5.19224 v 0.86028 0.86029 h -4.04385 c -2.22411,0 -4.47649,0.0452 -5.00528,0.10048 l -0.96144,0.1005 v 2.16752 2.16753 h 5.00529 5.00528 v 0.78208 0.78207 h -5.29085 -5.29085 z"
       id="path23775" /><path
       style="fill:#5d5b5c;fill-opacity:1;stroke-width:0.156415"
       d="m 179.07253,121.02407 c -0.56085,-0.10971 -0.84442,-0.58506 -1.01937,-1.70883 -0.24733,-1.58864 -0.10807,-4.6035 0.23696,-5.13008 0.49147,-0.75009 0.79645,-0.79418 5.49764,-0.79481 3.88309,-5.3e-4 4.4366,0.0306 4.88222,0.27419 0.73253,0.40047 0.86819,1.09999 0.80318,4.14161 l -0.0545,2.5483 -0.46925,0.38331 -0.46924,0.3833 -4.53604,-0.0157 c -2.49482,-0.009 -4.68706,-0.0452 -4.87164,-0.0813 z m 9.02051,-1.85713 c 0.16616,-0.43701 0.21134,-3.48676 0.0576,-3.8874 -0.0834,-0.21743 -0.62373,-0.24741 -4.45783,-0.24741 h -4.36289 v 2.0206 c 0,1.11133 0.0427,2.13194 0.095,2.26802 0.0833,0.21713 0.61029,0.24741 4.30528,0.24741 h 4.21035 z"
       id="path23777" /><path
       style="fill:#5d5b5c;fill-opacity:1;stroke-width:0.156415"
       d="m 175.26313,117.22194 v -3.91038 h 0.62566 0.62566 v 3.91038 3.91037 h -0.62566 -0.62566 z"
       id="path23779" /><path
       style="fill:#5d5b5c;fill-opacity:1;stroke-width:0.156415"
       d="m 191.06106,117.21029 v -3.92201 l 4.96618,0.0542 c 5.38992,0.0589 5.64221,0.0975 6.07282,0.93021 0.17169,0.33203 0.22289,1.16928 0.22289,3.64531 v 3.21427 h -0.5275 -0.5275 l -0.11342,-2.95538 -0.11343,-2.95539 -0.47353,-0.0947 c -0.26045,-0.0521 -2.2596,-0.0947 -4.44257,-0.0947 h -3.96904 v 3.05009 3.05009 h -0.54745 -0.54745 z"
       id="path23781" /></g></svg>
